<svg xmlns:xlink="http://www.w3.org/1999/xlink" xmlns="http://www.w3.org/2000/svg" id="3NNzz3iIH" viewBox="0 0 350 169.9370550615684" height="169.9370550615684" width="350" style="width: 350px; height: 169.937px; position: absolute; top: 50%; left: 50%; z-index: 0; cursor: pointer; transform: translate(-50%, -50%) scale(0.598286);"><defs id="SvgjsDefs1063"></defs><g id="SvgjsG1064" featurekey="YvLwfh-0" transform="matrix(0.002082861977328568,0,0,0.002082861977328568,122.98107299253113,-11.73848608544056)" fill="#F25D9C"><defs xmlns="http://www.w3.org/2000/svg"></defs><g xmlns="http://www.w3.org/2000/svg" fill="#F25D9C"><path class="fil0" d="M42922.81 41003.49l-2769.69 0 0 -1231.04 2769.69 0 0 1231.04zm-27839.49 -7706.73l2769.69 0 0 -1231.04 -2769.69 0 0 1231.04zm-9423.89 -12810.56l-2769.69 0 0 -1231.04 2769.69 0 0 1231.04zm0 2564.66l-2769.69 0 0 -1231.03 2769.69 0 0 1231.03zm0 2564.66l-2769.69 0 0 -1231.04 2769.69 0 0 1231.04zm0 2564.67l-2769.69 0 0 -1231.04 2769.69 0 0 1231.04zm0 2564.65l-2769.69 0 0 -1231.04 2769.69 0 0 1231.04zm0 2564.67l-2769.69 0 0 -1231.04 2769.69 0 0 1231.04zm0 2564.65l-2769.69 0 0 -1231.03 2769.69 0 0 1231.03zm0 2564.67l-2769.69 0 0 -1231.04 2769.69 0 0 1231.04zm0 2564.66l-2769.69 0 0 -1231.04 2769.69 0 0 1231.04zm41450.84 -20517.29l-2769.69 0 0 -1231.04 2769.69 0 0 1231.04zm0 2564.66l-2769.69 0 0 -1231.03 2769.69 0 0 1231.03zm0 2564.66l-2769.69 0 0 -1231.04 2769.69 0 0 1231.04zm0 2564.67l-2769.69 0 0 -1231.04 2769.69 0 0 1231.04zm0 2564.65l-2769.69 0 0 -1231.04 2769.69 0 0 1231.04zm0 2564.67l-2769.69 0 0 -1231.04 2769.69 0 0 1231.04zm0 2564.65l-2769.69 0 0 -1231.03 2769.69 0 0 1231.03zm0 2564.67l-2769.69 0 0 -1231.04 2769.69 0 0 1231.04zm0 2564.66l-2769.69 0 0 -1231.04 2769.69 0 0 1231.04zm-24023.38 -24397.51l10137.89 4682.95 2.71 -4549.97 -10093.77 -4662.54 -46.83 4529.56zm-4023.82 6393.35c1003.97,0 1921.55,370.05 2623.84,981.17l144.32 -13966.57 12720.46 5875.86 -9.3 15519.35c2.31,56.01 3.57,112.34 3.57,168.93 0,1104.24 -447.65,2104.04 -1171.36,2827.76 -723.71,723.69 -1723.51,1171.35 -2827.75,1171.35 -1104.25,0 -2104.04,-447.66 -2827.72,-1171.35 -723.72,-723.72 -1171.38,-1723.52 -1171.38,-2827.76 0,-1104.25 447.66,-2104.03 1171.38,-2827.74 723.68,-723.68 1723.47,-1171.34 2827.72,-1171.34 1027.83,0 1965.12,387.87 2673.53,1025.15l3.51 -5854.77 -10152.01 -4689.44 -84.39 8165.77c48.95,250.03 74.69,508.37 74.69,772.71 0,1104.26 -447.67,2104.06 -1171.35,2827.76 -723.72,723.71 -1723.52,1171.35 -2827.76,1171.35 -1104.24,0 -2104.03,-447.64 -2827.75,-1171.35 -723.7,-723.7 -1171.36,-1723.5 -1171.36,-2827.76 0,-1104.24 447.66,-2104.03 1171.36,-2827.73 723.72,-723.69 1723.51,-1171.35 2827.75,-1171.35zm13371.97 6690.57c-483.18,-483.2 -1150.78,-782.04 -1888.19,-782.04 -737.42,0 -1405.01,298.85 -1888.17,782.04 -483.19,483.17 -782.06,1150.75 -782.06,1888.17 0,737.4 298.87,1404.99 782.06,1888.18 483.16,483.18 1150.75,782.06 1888.17,782.06 737.41,0 1405.01,-298.88 1888.19,-782.06 483.18,-483.19 782.06,-1150.78 782.06,-1888.18 0,-737.42 -298.88,-1405 -782.06,-1888.17zm-11483.79 -4579.64c-483.17,-483.19 -1150.76,-782.06 -1888.18,-782.06 -737.4,0 -1404.99,298.87 -1888.19,782.06 -483.17,483.15 -782.05,1150.74 -782.05,1888.15 0,737.43 298.88,1405.03 782.05,1888.2 483.2,483.16 1150.79,782.06 1888.19,782.06 737.42,0 1405.01,-298.9 1888.18,-782.06 331.8,-331.78 576.68,-750.57 697.55,-1219.16l13.29 -1284.16c-115.61,-490.38 -366.38,-928.59 -710.84,-1273.03zm-11344.13 -9753.39l-2769.69 0 0 -1231.03 2769.69 0 0 1231.03zm0 2564.67l-2769.69 0 0 -1231.04 2769.69 0 0 1231.04zm0 2564.66l-2769.69 0 0 -1231.04 2769.69 0 0 1231.04zm0 2564.66l-2769.69 0 0 -1231.03 2769.69 0 0 1231.03zm0 2564.66l-2769.69 0 0 -1231.04 2769.69 0 0 1231.04zm0 2564.67l-2769.69 0 0 -1231.04 2769.69 0 0 1231.04zm0 2564.65l-2769.69 0 0 -1231.04 2769.69 0 0 1231.04zm0 2564.67l-2769.69 0 0 -1231.04 2769.69 0 0 1231.04zm0 2564.65l-2769.69 0 0 -1231.03 2769.69 0 0 1231.03zm0 2564.67l-2769.69 0 0 -1231.04 2769.69 0 0 1231.04zm0 2564.66l-2769.69 0 0 -1231.04 2769.69 0 0 1231.04zm16620.8 -5129.33l-2769.69 0 0 -1231.03 2769.69 0 0 1231.03zm0 2564.67l-2769.69 0 0 -1231.04 2769.69 0 0 1231.04zm0 2564.66l-2769.69 0 0 -1231.04 2769.69 0 0 1231.04zm4184.48 -2564.66l-2769.69 0 0 -1231.04 2769.69 0 0 1231.04zm0 2564.66l-2769.69 0 0 -1231.04 2769.69 0 0 1231.04zm4132.53 -2564.66l-2769.69 0 0 -1231.04 2769.69 0 0 1231.04zm0 2564.66l-2769.69 0 0 -1231.04 2769.69 0 0 1231.04zm-23706.98 -15387.97l2769.69 0 0 -1231.04 -2769.69 0 0 1231.04zm0 2564.67l2769.69 0 0 -1231.04 -2769.69 0 0 1231.04zm0 2564.65l2769.69 0 0 -1231.04 -2769.69 0 0 1231.04zm0 2564.67l2769.69 0 0 -1231.04 -2769.69 0 0 1231.04zm0 2564.65l2769.69 0 0 -1231.03 -2769.69 0 0 1231.03zm0 2564.67l2769.69 0 0 -1231.04 -2769.69 0 0 1231.04zm0 2564.66l2769.69 0 0 -1231.04 -2769.69 0 0 1231.04zm8429.85 -7693.98l2769.69 0 0 -1231.04 -2769.69 0 0 1231.04zm0 2564.65l2769.69 0 0 -1231.03 -2769.69 0 0 1231.03zm0 2564.67l2769.69 0 0 -1231.04 -2769.69 0 0 1231.04zm0 2564.66l2769.69 0 0 -1231.04 -2769.69 0 0 1231.04zm-4184.48 -5129.33l2769.69 0 0 -1231.03 -2769.69 0 0 1231.03zm0 2564.67l2769.69 0 0 -1231.04 -2769.69 0 0 1231.04zm0 2564.66l2769.69 0 0 -1231.04 -2769.69 0 0 1231.04zm23594.13 -17952.63l-2769.69 0 0 -1231.03 2769.69 0 0 1231.03zm0 2564.66l-2769.69 0 0 -1231.04 2769.69 0 0 1231.04zm0 2564.67l-2769.69 0 0 -1231.04 2769.69 0 0 1231.04zm0 2564.65l-2769.69 0 0 -1231.04 2769.69 0 0 1231.04zm0 2564.67l-2769.69 0 0 -1231.04 2769.69 0 0 1231.04zm0 2564.65l-2769.69 0 0 -1231.03 2769.69 0 0 1231.03zm0 2564.67l-2769.69 0 0 -1231.04 2769.69 0 0 1231.04zm0 2564.66l-2769.69 0 0 -1231.04 2769.69 0 0 1231.04zm4245.36 -30775.94l-2769.69 0 0 -1231.04 2769.69 0 0 1231.04zm0 2564.66l-2769.69 0 0 -1231.04 2769.69 0 0 1231.04zm0 2564.66l-2769.69 0 0 -1231.03 2769.69 0 0 1231.03zm0 2564.67l-2769.69 0 0 -1231.04 2769.69 0 0 1231.04zm0 2564.66l-2769.69 0 0 -1231.04 2769.69 0 0 1231.04zm0 2564.66l-2769.69 0 0 -1231.03 2769.69 0 0 1231.03zm0 2564.66l-2769.69 0 0 -1231.04 2769.69 0 0 1231.04zm0 2564.67l-2769.69 0 0 -1231.04 2769.69 0 0 1231.04zm0 2564.65l-2769.69 0 0 -1231.04 2769.69 0 0 1231.04zm0 2564.67l-2769.69 0 0 -1231.04 2769.69 0 0 1231.04zm0 2564.65l-2769.69 0 0 -1231.03 2769.69 0 0 1231.03zm0 2564.67l-2769.69 0 0 -1231.04 2769.69 0 0 1231.04z" style="" fill="#F25D9C"></path></g></g><g id="SvgjsG1065" featurekey="JZW510-0" transform="matrix(1.8758707682584503,0,0,1.8758707682584503,-2.025938497631772,96.2700204936199)" fill="#590D82"><path d="M6.9 9.38 c1.4267 0 2.5666 0.5 3.42 1.5 s1.28 2.3534 1.28 4.06 c0 1.56 -0.41 2.84 -1.23 3.84 s-1.9233 1.5 -3.31 1.5 c-1.36 0 -2.3934 -0.52 -3.1 -1.56 l-0.04 0 l0 4.92 l-2.84 0 l0 -13.98 l2.7 0 l0 1.32 l0.04 0 c0.68 -1.0667 1.7067 -1.6 3.08 -1.6 z M3.82 14.86 c0 1.0133 0.21336 1.8133 0.64002 2.4 s1.04 0.88 1.84 0.88 c0.82666 0 1.4433 -0.29334 1.85 -0.88 s0.61 -1.3867 0.61 -2.4 c0 -1.04 -0.22 -1.8567 -0.66 -2.45 s-1.0533 -0.89 -1.84 -0.89 s-1.39 0.29334 -1.81 0.88 s-0.63 1.4067 -0.63 2.46 z M16.14 9.66 l0 5.86 c0 0.8 0.12666 1.42 0.38 1.86 s0.73334 0.66 1.44 0.66 c0.78666 0 1.35 -0.23334 1.69 -0.7 s0.51 -1.2133 0.51 -2.24 l0 -5.44 l2.84 0 l0 10.34 l-2.7 0 l0 -1.44 l-0.06 0 c-0.70666 1.1467 -1.7667 1.72 -3.18 1.72 c-1.3467 0 -2.31 -0.34334 -2.89 -1.03 s-0.87 -1.7433 -0.87 -3.17 l0 -6.42 l2.84 0 z M31.2 9.38 c0.24 0 0.44668 0.03334 0.62002 0.1 l0 2.64 c-0.30666 -0.06666 -0.64666 -0.1 -1.02 -0.1 c-1.8667 0 -2.8 1.1067 -2.8 3.32 l0 4.66 l-2.84 0 l0 -10.34 l2.7 0 l0 1.92 l0.04 0 c0.28 -0.66666 0.72334 -1.2 1.33 -1.6 s1.2633 -0.6 1.97 -0.6 z M38.76 9.38 c1.4267 0 2.5666 0.5 3.42 1.5 s1.28 2.3534 1.28 4.06 c0 1.56 -0.41 2.84 -1.23 3.84 s-1.9233 1.5 -3.31 1.5 c-1.36 0 -2.3934 -0.52 -3.1 -1.56 l-0.04 0 l0 4.92 l-2.84 0 l0 -13.98 l2.7 0 l0 1.32 l0.04 0 c0.68 -1.0667 1.7067 -1.6 3.08 -1.6 z M35.68 14.86 c0 1.0133 0.21336 1.8133 0.64002 2.4 s1.04 0.88 1.84 0.88 c0.82666 0 1.4433 -0.29334 1.85 -0.88 s0.61 -1.3867 0.61 -2.4 c0 -1.04 -0.22 -1.8567 -0.66 -2.45 s-1.0533 -0.89 -1.84 -0.89 s-1.39 0.29334 -1.81 0.88 s-0.63 1.4067 -0.63 2.46 z M48.08 5.720000000000001 l0 14.28 l-2.84 0 l0 -14.28 l2.84 0 z M55.099999999999994 9.38 c0.97334 0 1.84 0.22664 2.6 0.67998 s1.3567 1.11 1.79 1.97 s0.65 1.85 0.65 2.97 c0 0.10666 -0.0066602 0.28 -0.02 0.52 l-7.46 0 c0.02666 0.82666 0.24332 1.47 0.64998 1.93 s1.03 0.69 1.87 0.69 c0.52 0 0.99666 -0.13 1.43 -0.39 s0.71 -0.57666 0.83 -0.95 l2.5 0 c-0.73334 2.32 -2.3466 3.48 -4.84 3.48 c-0.94666 -0.01334 -1.8233 -0.22 -2.63 -0.62 s-1.45 -1.0233 -1.93 -1.87 s-0.72 -1.83 -0.72 -2.95 c0 -1.0533 0.24334 -2.0134 0.73 -2.88 s1.1333 -1.5133 1.94 -1.94 s1.6767 -0.64 2.61 -0.64 z M57.279999999999994 13.719999999999999 c-0.13334 -0.77334 -0.38 -1.3333 -0.74 -1.68 s-0.87334 -0.52 -1.54 -0.52 c-0.69334 0 -1.24 0.19666 -1.64 0.59 s-0.63334 0.93 -0.7 1.61 l4.62 0 z M73.32000000000001 9.38 c1.5067 0 2.5134 0.57332 3.02 1.72 c0.78666 -1.1467 1.8333 -1.72 3.14 -1.72 c1.2933 0 2.2434 0.32666 2.85 0.98 s0.91 1.5533 0.91 2.7 l0 6.94 l-2.84 0 l0 -5.98 c0 -0.90666 -0.13666 -1.5333 -0.41 -1.88 s-0.71668 -0.52 -1.33 -0.52 c-1.2667 0 -1.9 0.86666 -1.9 2.6 l0 5.78 l-2.84 0 l0 -6.1 c0 -0.88 -0.14 -1.48 -0.42 -1.8 s-0.71334 -0.48 -1.3 -0.48 c-0.54666 0 -1.0033 0.21666 -1.37 0.65 s-0.55 1.0033 -0.55 1.71 l0 6.02 l-2.84 0 l0 -10.34 l2.68 0 l0 1.4 l0.04 0 c0.78666 -1.12 1.84 -1.68 3.16 -1.68 z M88.32000000000001 9.66 l0 5.86 c0 0.8 0.12666 1.42 0.38 1.86 s0.73334 0.66 1.44 0.66 c0.78666 0 1.35 -0.23334 1.69 -0.7 s0.51 -1.2133 0.51 -2.24 l0 -5.44 l2.84 0 l0 10.34 l-2.7 0 l0 -1.44 l-0.06 0 c-0.70666 1.1467 -1.7667 1.72 -3.18 1.72 c-1.3467 0 -2.31 -0.34334 -2.89 -1.03 s-0.87 -1.7433 -0.87 -3.17 l0 -6.42 l2.84 0 z M101.58000000000001 9.38 c1.3867 0 2.47 0.28002 3.25 0.84002 s1.2167 1.38 1.31 2.46 l-2.7 0 c-0.04 -0.49334 -0.22 -0.85 -0.54 -1.07 s-0.78666 -0.33 -1.4 -0.33 c-0.53334 0 -0.93 0.08 -1.19 0.24 s-0.39 0.4 -0.39 0.72 c0 0.24 0.08666 0.44 0.26 0.6 s0.43668 0.3 0.79002 0.42 s0.74334 0.22 1.17 0.3 c1.2933 0.25334 2.2066 0.51334 2.74 0.78 s0.92334 0.58666 1.17 0.96 s0.37 0.83334 0.37 1.38 c0 1.16 -0.42334 2.05 -1.27 2.67 s-1.9967 0.93 -3.45 0.93 c-1.52 0 -2.7034 -0.32666 -3.55 -0.98 s-1.2833 -1.54 -1.31 -2.66 l2.7 0 c0 0.53334 0.20666 0.95668 0.62 1.27 s0.93334 0.47 1.56 0.47 c0.53334 0 0.97668 -0.11666 1.33 -0.35 s0.53 -0.55668 0.53 -0.97002 c0 -0.26666 -0.11 -0.48666 -0.33 -0.66 s-0.53 -0.32668 -0.93 -0.46002 s-1.02 -0.28668 -1.86 -0.46002 c-0.66666 -0.13334 -1.26 -0.31334 -1.78 -0.54 s-0.91666 -0.52332 -1.19 -0.88998 s-0.41 -0.81666 -0.41 -1.35 c0 -0.68 0.16334 -1.2733 0.49 -1.78 s0.82666 -0.89 1.5 -1.15 s1.51 -0.39 2.51 -0.39 z M111 5.720000000000001 l0 2.34 l-2.84 0 l0 -2.34 l2.84 0 z M111 9.66 l0 10.34 l-2.84 0 l0 -10.34 l2.84 0 z M118.2 9.38 c1.4 0 2.54 0.35664 3.42 1.07 s1.36 1.6633 1.44 2.85 l-2.78 0 c-0.18666 -1.1867 -0.88666 -1.78 -2.1 -1.78 c-0.74666 0 -1.3367 0.30666 -1.77 0.92 s-0.65 1.4267 -0.65 2.44 c0 0.97334 0.20666 1.76 0.62 2.36 s0.99334 0.9 1.74 0.9 c1.2933 0 2.0466 -0.7 2.26 -2.1 l2.74 0 c-0.18666 1.3733 -0.71666 2.4234 -1.59 3.15 s-2.0034 1.09 -3.39 1.09 c-1.5333 0 -2.7866 -0.49 -3.76 -1.47 s-1.46 -2.2566 -1.46 -3.83 c0 -1.7067 0.48 -3.0666 1.44 -4.08 s2.24 -1.52 3.84 -1.52 z M136.1 9.38 c1.4267 0 2.5666 0.5 3.42 1.5 s1.28 2.3534 1.28 4.06 c0 1.56 -0.41 2.84 -1.23 3.84 s-1.9233 1.5 -3.31 1.5 c-1.36 0 -2.3934 -0.52 -3.1 -1.56 l-0.04 0 l0 4.92 l-2.84 0 l0 -13.98 l2.7 0 l0 1.32 l0.04 0 c0.68 -1.0667 1.7067 -1.6 3.08 -1.6 z M133.01999999999998 14.86 c0 1.0133 0.21336 1.8133 0.64002 2.4 s1.04 0.88 1.84 0.88 c0.82666 0 1.4433 -0.29334 1.85 -0.88 s0.61 -1.3867 0.61 -2.4 c0 -1.04 -0.22 -1.8567 -0.66 -2.45 s-1.0533 -0.89 -1.84 -0.89 s-1.39 0.29334 -1.81 0.88 s-0.63 1.4067 -0.63 2.46 z M145.42 5.720000000000001 l0 14.28 l-2.84 0 l0 -14.28 l2.84 0 z M152.42 9.38 c3.0134 0.01334 4.52 0.9933 4.52 2.94 l0 5.48 c0 1.0133 0.12 1.7467 0.36 2.2 l-2.88 0 c-0.10666 -0.32 -0.17332 -0.65334 -0.19998 -1 c-0.84 0.85334 -2 1.28 -3.48 1.28 c-1.08 0 -1.9367 -0.27334 -2.57 -0.82 s-0.95 -1.3067 -0.95 -2.28 c0 -0.94666 0.3 -1.68 0.9 -2.2 c0.61334 -0.54666 1.7267 -0.89332 3.34 -1.04 c1.1467 -0.12 1.8733 -0.27 2.18 -0.45 s0.46 -0.45666 0.46 -0.83 c0 -0.46666 -0.14 -0.81332 -0.42 -1.04 s-0.74666 -0.34 -1.4 -0.34 c-0.6 0 -1.0533 0.12334 -1.36 0.37 s-0.48666 0.64332 -0.54 1.19 l-2.84 0 c0.06666 -1.1333 0.53332 -1.9933 1.4 -2.58 s2.0266 -0.88 3.48 -0.88 z M150.05999999999997 17.06 c0 0.88 0.58 1.32 1.74 1.32 c1.52 -0.01334 2.2866 -0.79334 2.3 -2.34 l0 -1.1 c-0.22666 0.22666 -0.8 0.39332 -1.72 0.49998 c-0.8 0.09334 -1.3867 0.25668 -1.76 0.49002 s-0.56 0.61 -0.56 1.13 z M160.97999999999996 9.66 l2.34 7.08 l0.04 0 l2.26 -7.08 l2.94 0 l-4.32 11.64 c-0.30666 0.81334 -0.73 1.4067 -1.27 1.78 s-1.29 0.56 -2.25 0.56 c-0.41334 0 -1.0067 -0.03334 -1.78 -0.1 l0 -2.34 c0.50666 0.06666 1.0067 0.1 1.5 0.1 c0.4 0 0.71 -0.12334 0.93 -0.37 s0.33 -0.55666 0.33 -0.93 c0 -0.21334 -0.04 -0.42668 -0.12 -0.64002 l-3.64 -9.7 l3.04 0 z M174.29999999999998 9.38 c0.97334 0 1.84 0.22664 2.6 0.67998 s1.3567 1.11 1.79 1.97 s0.65 1.85 0.65 2.97 c0 0.10666 -0.0066602 0.28 -0.02 0.52 l-7.46 0 c0.02666 0.82666 0.24332 1.47 0.64998 1.93 s1.03 0.69 1.87 0.69 c0.52 0 0.99666 -0.13 1.43 -0.39 s0.71 -0.57666 0.83 -0.95 l2.5 0 c-0.73334 2.32 -2.3466 3.48 -4.84 3.48 c-0.94666 -0.01334 -1.8233 -0.22 -2.63 -0.62 s-1.45 -1.0233 -1.93 -1.87 s-0.72 -1.83 -0.72 -2.95 c0 -1.0533 0.24334 -2.0134 0.73 -2.88 s1.1333 -1.5133 1.94 -1.94 s1.6767 -0.64 2.61 -0.64 z M176.47999999999996 13.719999999999999 c-0.13334 -0.77334 -0.38 -1.3333 -0.74 -1.68 s-0.87334 -0.52 -1.54 -0.52 c-0.69334 0 -1.24 0.19666 -1.64 0.59 s-0.63334 0.93 -0.7 1.61 l4.62 0 z M187.03999999999996 9.38 c0.24 0 0.44668 0.03334 0.62002 0.1 l0 2.64 c-0.30666 -0.06666 -0.64666 -0.1 -1.02 -0.1 c-1.8667 0 -2.8 1.1067 -2.8 3.32 l0 4.66 l-2.84 0 l0 -10.34 l2.7 0 l0 1.92 l0.04 0 c0.28 -0.66666 0.72334 -1.2 1.33 -1.6 s1.2633 -0.6 1.97 -0.6 z" fill="#590D82"></path></g><g id="SvgjsG1066" featurekey="zdvuGz-0" transform="matrix(0.8526467320300788,0,0,0.8526467320300788,122.8915586791578,152.8841204209668)" fill="#F25D9C"><path d="M8.96 12.42 c0.94 0.54 1.56 1.52 1.56 3.04 l0 0.84 c0 2.62 -1.38 3.7 -4.02 3.7 l-4.2 0 l-0.7 0 c-0.2 0 -0.3 -0.1 -0.3 -0.3 l0 -13.4 c0 -0.2 0.1 -0.3 0.3 -0.3 l1.14 0 l3.72 0 c2.4 0 3.5 1.12 3.5 3.66 c0 1.26 -0.38 2.16 -1 2.76 z M8.22 9.66 c0 -1.7 -0.4 -2.08 -1.76 -2.08 l-3.42 0 l0 4.28 l3.42 0 c1.36 0 1.76 -0.5 1.76 -2.2 z M8.78 16.3 l0 -0.84 c0 -1.78 -0.68 -2.16 -2.28 -2.16 l-3.46 0 l0 5.12 l3.46 0 c1.6 0 2.28 -0.36 2.28 -2.12 z M27.386499999999998 7.58 l-6.02 0 l0 4.76 l4.6 0 c0.2 0 0.3 0.1 0.3 0.3 l0 0.98 c0 0.2 -0.1 0.3 -0.3 0.3 l-4.6 0 l0 4.5 l6.12 0 c0.2 0 0.3 0.1 0.3 0.3 l0 0.98 c0 0.2 -0.1 0.3 -0.3 0.3 l-7.56 0 c-0.2 0 -0.3 -0.1 -0.3 -0.3 l0 -13.4 c0 -0.2 0.1 -0.3 0.3 -0.3 l7.46 0 c0.2 0 0.3 0.1 0.3 0.3 l0 0.98 c0 0.2 -0.1 0.3 -0.3 0.3 z M59.3195 19.66 c0.08 0.22 -0.04 0.34 -0.24 0.34 l-1.12 0 c-0.2 0 -0.3 -0.12 -0.38 -0.34 l-0.76 -2.6 l-5.28 0 l-0.76 2.6 c-0.06 0.22 -0.18 0.34 -0.38 0.34 l-1.12 0 c-0.2 0 -0.3 -0.12 -0.24 -0.34 l4.04 -13.34 c0.06 -0.2 0.2 -0.32 0.38 -0.32 l1.42 0 c0.18 0 0.32 0.12 0.38 0.32 z M51.979499999999994 15.54 l4.4 0 l-2.2 -7.42 z M75.006 18.42 c0.2 0 0.3 0.1 0.3 0.3 l0 0.98 c0 0.2 -0.1 0.3 -0.3 0.3 l-6.94 0 c-0.2 0 -0.3 -0.1 -0.3 -0.3 l0 -13.4 c0 -0.2 0.1 -0.3 0.3 -0.3 l1.14 0 c0.2 0 0.3 0.1 0.3 0.3 l0 12.12 l5.5 0 z M84.31249999999999 6.300000000000001 c0 -0.2 0.1 -0.3 0.3 -0.3 l1.16 0 c0.2 0 0.3 0.1 0.3 0.3 l0 13.4 c0 0.2 -0.1 0.3 -0.3 0.3 l-1.16 0 c-0.2 0 -0.3 -0.1 -0.3 -0.3 l0 -13.4 z M94.959 6.34 c-0.06 -0.22 0.04 -0.34 0.24 -0.34 l1.12 0 c0.2 0 0.32 0.12 0.38 0.34 l3.4 11.54 l3.42 -11.54 c0.06 -0.22 0.16 -0.34 0.36 -0.34 l1.12 0 c0.2 0 0.32 0.12 0.26 0.34 l-4.06 13.34 c-0.06 0.2 -0.2 0.32 -0.38 0.32 l-1.44 0 c-0.18 0 -0.32 -0.12 -0.38 -0.32 z M121.88550000000001 7.58 l-6.02 0 l0 4.76 l4.6 0 c0.2 0 0.3 0.1 0.3 0.3 l0 0.98 c0 0.2 -0.1 0.3 -0.3 0.3 l-4.6 0 l0 4.5 l6.12 0 c0.2 0 0.3 0.1 0.3 0.3 l0 0.98 c0 0.2 -0.1 0.3 -0.3 0.3 l-7.56 0 c-0.2 0 -0.3 -0.1 -0.3 -0.3 l0 -13.4 c0 -0.2 0.1 -0.3 0.3 -0.3 l7.46 0 c0.2 0 0.3 0.1 0.3 0.3 l0 0.98 c0 0.2 -0.1 0.3 -0.3 0.3 z" fill="#F25D9C"></path></g></svg>