<svg xmlns:xlink="http://www.w3.org/1999/xlink" xmlns="http://www.w3.org/2000/svg" id="Px0_Pi6K-" viewBox="0 0 350 186.57572644318657" height="186.57572644318657" width="350" style="width: 350px; height: 186.576px; position: absolute; top: 50%; left: 50%; z-index: 0; cursor: pointer; transform: translate(-50%, -50%) scale(0.598286);"><defs id="SvgjsDefs1075"><linearGradient id="SvgjsLinearGradient1082"><stop id="SvgjsStop1083" stop-color="#fe8dc6" offset="0"></stop><stop id="SvgjsStop1084" stop-color="#fed1c7" offset="1"></stop></linearGradient><linearGradient id="SvgjsLinearGradient1085"><stop id="SvgjsStop1086" stop-color="#fe8dc6" offset="0"></stop><stop id="SvgjsStop1087" stop-color="#fed1c7" offset="1"></stop></linearGradient><linearGradient id="SvgjsLinearGradient1082"><stop id="SvgjsStop1083" stop-color="#fe8dc6" offset="0"></stop><stop id="SvgjsStop1084" stop-color="#fed1c7" offset="1"></stop></linearGradient><linearGradient id="SvgjsLinearGradient1082"><stop id="SvgjsStop1083" stop-color="#fe8dc6" offset="0"></stop><stop id="SvgjsStop1084" stop-color="#fed1c7" offset="1"></stop></linearGradient><linearGradient id="SvgjsLinearGradient1082"><stop id="SvgjsStop1083" stop-color="#fe8dc6" offset="0"></stop><stop id="SvgjsStop1084" stop-color="#fed1c7" offset="1"></stop></linearGradient><linearGradient id="SvgjsLinearGradient1085"><stop id="SvgjsStop1086" stop-color="#fe8dc6" offset="0"></stop><stop id="SvgjsStop1087" stop-color="#fed1c7" offset="1"></stop></linearGradient><linearGradient id="SvgjsLinearGradient1085"><stop id="SvgjsStop1086" stop-color="#fe8dc6" offset="0"></stop><stop id="SvgjsStop1087" stop-color="#fed1c7" offset="1"></stop></linearGradient></defs><g id="SvgjsG1076" featurekey="symbolFeature-0" transform="matrix(2.984144578796968,0,0,2.984144578796968,100.44988510914575,-20.515993979229155)" fill="url(&quot;#SvgjsLinearGradient1082&quot;)"><g xmlns="http://www.w3.org/2000/svg" fill="url(&quot;#SvgjsLinearGradient1082&quot;)"><path d="M40.201,14.415c-1.993-7.225-14.974-7.534-15.199-7.54c0,0-0.001,0-0.003,0h-0.001c-0.225,0.006-13.208,0.314-15.2,7.54   c-2.009,7.286,9.608,28.765,15.2,28.71c0.001,0,0.001,0,0.001,0s0.002,0,0.003,0C30.594,43.18,42.212,21.701,40.201,14.415z    M12.054,16.841c0.109-0.079,0.224-0.163,0.346-0.26c0.868-0.678,1.211-1.108,1.574-1.565c0.37-0.465,0.752-0.945,1.677-1.669   h0.001c0.925-0.722,1.483-0.977,2.023-1.224c0.53-0.241,1.031-0.469,1.899-1.148c0.306-0.237,0.543-0.445,0.741-0.634   c0.359-0.079,0.708-0.149,1.045-0.208c-0.309,0.37-0.698,0.78-1.404,1.332c-0.925,0.723-1.484,0.978-2.024,1.224   c-0.53,0.242-1.032,0.471-1.9,1.148l0,0l0,0c-0.868,0.678-1.21,1.109-1.574,1.566c-0.37,0.464-0.751,0.944-1.678,1.667   c-0.292,0.23-0.545,0.408-0.776,0.557C12.009,17.353,12.025,17.09,12.054,16.841z M12.308,20.409   c-0.043-0.213-0.083-0.424-0.116-0.629c0.505-0.232,1.001-0.468,1.833-1.119c0.868-0.678,1.211-1.109,1.574-1.565   c0.37-0.465,0.751-0.945,1.677-1.669h0.002c0.924-0.722,1.483-0.978,2.023-1.224c0.53-0.241,1.032-0.469,1.898-1.147   c0.868-0.678,1.211-1.108,1.573-1.565c0.37-0.463,0.751-0.944,1.677-1.667c0.03-0.024,0.059-0.044,0.089-0.067   c0.271-0.015,0.439-0.02,0.46-0.02H25c0.002,0,0.003,0,0.003,0c0.024,0,0.242,0.006,0.597,0.029   c-0.225,0.143-0.475,0.319-0.767,0.548c-0.869,0.678-1.211,1.109-1.574,1.565c-0.369,0.464-0.751,0.944-1.677,1.667   c-0.925,0.723-1.483,0.978-2.024,1.224c-0.53,0.241-1.031,0.47-1.898,1.148h-0.001l0,0c-0.867,0.678-1.21,1.109-1.573,1.565   c-0.369,0.465-0.751,0.945-1.678,1.669c-0.927,0.724-1.485,0.978-2.024,1.225C12.357,20.386,12.333,20.397,12.308,20.409z    M12.798,22.374c0.359-0.212,0.66-0.351,0.952-0.483c0.531-0.243,1.031-0.471,1.9-1.149c0.867-0.678,1.211-1.109,1.573-1.566   c0.367-0.461,0.748-0.938,1.661-1.655l0.055-0.06l0.015,0.007c0.894-0.691,1.443-0.942,1.972-1.184   c0.53-0.243,1.031-0.471,1.9-1.148c0.867-0.678,1.209-1.109,1.572-1.565c0.369-0.465,0.751-0.944,1.676-1.667   c0.925-0.722,1.482-0.978,2.023-1.224c0.296-0.134,0.583-0.268,0.928-0.473c0.279,0.054,0.566,0.114,0.857,0.182   c-0.641,0.45-1.091,0.657-1.526,0.856c-0.531,0.241-1.032,0.47-1.9,1.148c-0.867,0.678-1.21,1.108-1.573,1.565   c-0.369,0.464-0.75,0.944-1.676,1.667c-0.926,0.723-1.484,0.977-2.024,1.224c-0.53,0.241-1.031,0.47-1.899,1.146l0,0l0,0v0.001   c-0.868,0.677-1.211,1.108-1.575,1.565c-0.369,0.465-0.751,0.945-1.677,1.669c-0.926,0.722-1.485,0.978-2.025,1.224   c-0.323,0.148-0.635,0.291-1.025,0.532C12.918,22.781,12.856,22.577,12.798,22.374z M13.666,24.955   c0.743-0.544,1.234-0.768,1.709-0.984c0.53-0.242,1.031-0.471,1.899-1.149c0.868-0.678,1.211-1.109,1.574-1.566   c0.37-0.464,0.752-0.945,1.677-1.667h0.001c0.925-0.724,1.483-0.978,2.023-1.224c0.53-0.243,1.031-0.471,1.899-1.149   c0.867-0.677,1.21-1.108,1.573-1.563c0.368-0.464,0.751-0.944,1.677-1.668c0.925-0.722,1.484-0.978,2.022-1.224   c0.532-0.242,1.033-0.471,1.899-1.147c0.25-0.196,0.452-0.369,0.627-0.529c0.217,0.078,0.43,0.161,0.642,0.25   c-0.231,0.227-0.513,0.478-0.886,0.768c-0.926,0.724-1.484,0.978-2.023,1.225c-0.531,0.241-1.032,0.47-1.899,1.148   c-0.867,0.677-1.21,1.108-1.573,1.564c-0.368,0.465-0.75,0.945-1.675,1.667c-0.926,0.724-1.485,0.978-2.024,1.224   c-0.53,0.242-1.031,0.471-1.898,1.148l0,0c0,0,0,0-0.001,0.001c-0.867,0.677-1.211,1.108-1.573,1.565   c-0.37,0.465-0.752,0.944-1.678,1.667s-1.485,0.979-2.024,1.225c-0.495,0.227-0.968,0.445-1.733,1.022   C13.82,25.356,13.742,25.155,13.666,24.955z M14.984,28.067c-0.09-0.194-0.181-0.389-0.268-0.583   c0.083-0.069,0.167-0.137,0.26-0.21c0.925-0.724,1.485-0.978,2.024-1.225c0.53-0.241,1.032-0.471,1.899-1.148   c0.868-0.679,1.212-1.109,1.574-1.566c0.37-0.464,0.753-0.945,1.678-1.667c0-0.001,0-0.001,0-0.001   c0.926-0.722,1.483-0.977,2.024-1.224c0.53-0.241,1.031-0.469,1.898-1.147c0.868-0.677,1.21-1.108,1.573-1.564   c0.368-0.465,0.751-0.945,1.676-1.668c0.926-0.724,1.485-0.978,2.025-1.225c0.529-0.241,1.03-0.47,1.897-1.148   c0.783-0.61,1.14-1.021,1.466-1.43c0.177,0.111,0.35,0.226,0.518,0.347c-0.348,0.436-0.736,0.897-1.602,1.572   c-0.925,0.724-1.482,0.978-2.022,1.224c-0.531,0.242-1.033,0.471-1.899,1.147c-0.867,0.678-1.21,1.11-1.573,1.565   c-0.368,0.465-0.751,0.945-1.677,1.667c-0.924,0.724-1.483,0.978-2.024,1.224c-0.53,0.242-1.03,0.471-1.898,1.148   c-0.868,0.678-1.211,1.109-1.574,1.566c-0.37,0.464-0.752,0.943-1.678,1.667c-0.925,0.724-1.483,0.979-2.024,1.225   c-0.53,0.243-1.032,0.472-1.899,1.149C15.219,27.871,15.098,27.971,14.984,28.067z M16.207,30.509   c-0.102-0.188-0.202-0.377-0.3-0.568c0.193-0.178,0.417-0.37,0.693-0.586c0.232-0.182,0.44-0.333,0.632-0.463   c0.572-0.388,0.988-0.578,1.394-0.762c0.53-0.242,1.031-0.471,1.899-1.149c0.76-0.593,1.117-0.997,1.438-1.395   c0.046-0.058,0.091-0.113,0.137-0.17c0.369-0.466,0.751-0.945,1.677-1.669c0.926-0.723,1.484-0.978,2.024-1.224   c0.53-0.241,1.031-0.469,1.899-1.147c0.867-0.678,1.209-1.108,1.573-1.565c0.368-0.463,0.75-0.944,1.676-1.666   c0.928-0.724,1.484-0.979,2.025-1.225c0.528-0.241,1.03-0.47,1.899-1.148c0.867-0.678,1.209-1.108,1.573-1.565   c0.069-0.09,0.145-0.181,0.219-0.272c0.136,0.164,0.266,0.334,0.382,0.513c-0.037,0.049-0.076,0.098-0.116,0.147   c-0.37,0.465-0.75,0.944-1.676,1.667c-0.928,0.723-1.484,0.978-2.025,1.224c-0.529,0.241-1.03,0.47-1.899,1.148   c-0.867,0.678-1.21,1.109-1.573,1.565c-0.368,0.464-0.75,0.944-1.676,1.667c-0.925,0.723-1.484,0.978-2.023,1.224   c-0.53,0.242-1.031,0.469-1.899,1.148c-0.868,0.678-1.211,1.109-1.575,1.565c-0.369,0.465-0.751,0.944-1.677,1.668   c-0.926,0.724-1.484,0.979-2.025,1.225c-0.53,0.242-1.031,0.47-1.899,1.149C16.661,30.095,16.412,30.313,16.207,30.509z    M28.182,38.474c-0.462,0.294-0.823,0.461-1.176,0.621c-0.53,0.242-1.031,0.471-1.899,1.148c-0.008,0.006-0.014,0.012-0.021,0.018   c-0.028,0.001-0.057,0.005-0.083,0.004c-0.001,0-0.003,0-0.003,0s0,0-0.001,0c-0.235,0.003-0.482-0.042-0.739-0.126   c0.14-0.121,0.29-0.247,0.466-0.385c0.231-0.181,0.44-0.333,0.632-0.463c0.572-0.388,0.988-0.578,1.393-0.762   c0.529-0.242,1.03-0.471,1.9-1.149c0.76-0.593,1.116-0.997,1.438-1.395c0.044-0.056,0.091-0.113,0.135-0.17   c0.277-0.35,0.564-0.708,1.082-1.172C30.263,36.173,29.195,37.495,28.182,38.474z M33.598,30.872   c-0.398,0.242-0.725,0.393-1.039,0.536c-0.531,0.242-1.032,0.471-1.899,1.147c-0.869,0.678-1.212,1.109-1.576,1.566   c-0.368,0.464-0.75,0.943-1.678,1.667c-0.925,0.724-1.482,0.979-2.023,1.226c-0.53,0.242-1.032,0.471-1.899,1.148   c-0.456,0.355-0.765,0.643-1.009,0.902c-0.154-0.129-0.309-0.268-0.465-0.411c0.201-0.216,0.445-0.449,0.769-0.72   c0.099-0.084,0.206-0.17,0.323-0.261c0.926-0.724,1.485-0.978,2.024-1.225c0.53-0.241,1.032-0.47,1.899-1.148   c0.869-0.678,1.212-1.109,1.575-1.565c0.368-0.464,0.75-0.945,1.678-1.668l0,0c0.926-0.724,1.482-0.978,2.023-1.224   c0.531-0.242,1.032-0.471,1.899-1.149c0.012-0.009,0.023-0.018,0.035-0.026C34.026,30.073,33.814,30.475,33.598,30.872z    M36.428,24.705c-0.072,0.053-0.145,0.106-0.222,0.167c-0.867,0.679-1.21,1.108-1.573,1.565c-0.368,0.464-0.751,0.944-1.676,1.668   c-0.926,0.723-1.484,0.977-2.025,1.224c-0.529,0.241-1.03,0.47-1.897,1.146v0.001l0,0c-0.869,0.677-1.212,1.108-1.575,1.565   c-0.369,0.465-0.751,0.944-1.677,1.668c-0.925,0.723-1.484,0.979-2.024,1.224c-0.531,0.243-1.033,0.472-1.901,1.149   c-0.593,0.464-0.939,0.812-1.215,1.131c-0.134-0.156-0.268-0.317-0.403-0.484c0.172-0.193,0.374-0.4,0.636-0.635   c0.173-0.154,0.37-0.319,0.6-0.501c0.927-0.723,1.485-0.978,2.025-1.224c0.53-0.242,1.032-0.471,1.9-1.149   c0.868-0.678,1.21-1.109,1.574-1.566c0.369-0.463,0.751-0.943,1.679-1.667l0,0c0.925-0.723,1.482-0.978,2.022-1.224   c0.532-0.242,1.03-0.471,1.9-1.148c0.866-0.678,1.209-1.109,1.573-1.564c0.368-0.464,0.75-0.944,1.676-1.668   c0.37-0.289,0.68-0.501,0.955-0.67C36.667,24.04,36.551,24.371,36.428,24.705z M37.541,21.094   c-0.407,0.251-0.738,0.402-1.063,0.549c-0.529,0.242-1.03,0.471-1.897,1.149c-0.869,0.677-1.212,1.108-1.573,1.564   c-0.37,0.465-0.75,0.945-1.678,1.667c-0.925,0.724-1.482,0.979-2.022,1.224c-0.532,0.243-1.03,0.472-1.9,1.148   c-0.867,0.678-1.21,1.109-1.573,1.566c-0.092,0.116-0.186,0.232-0.288,0.354c-0.307,0.365-0.694,0.771-1.389,1.313   c-0.694,0.543-1.183,0.822-1.611,1.031c-0.142,0.07-0.279,0.132-0.414,0.193c-0.53,0.243-1.031,0.471-1.899,1.149   c-0.586,0.458-0.931,0.802-1.206,1.119c-0.121-0.173-0.242-0.349-0.362-0.526c0.277-0.308,0.634-0.651,1.186-1.082   c0.925-0.724,1.485-0.978,2.024-1.224c0.531-0.242,1.033-0.471,1.901-1.149c0.867-0.678,1.21-1.109,1.573-1.566   c0.371-0.465,0.752-0.944,1.678-1.667l0,0c0.927-0.724,1.483-0.978,2.024-1.225c0.529-0.241,1.03-0.47,1.897-1.148   c0.869-0.677,1.212-1.108,1.573-1.563c0.37-0.465,0.753-0.945,1.678-1.668c0.926-0.724,1.482-0.978,2.023-1.224   c0.444-0.203,0.871-0.399,1.505-0.854C37.674,20.508,37.611,20.798,37.541,21.094z M36.88,18.341   c-0.926,0.723-1.485,0.978-2.025,1.224c-0.529,0.241-1.03,0.47-1.899,1.148c-0.867,0.678-1.21,1.108-1.571,1.565   c-0.37,0.464-0.753,0.944-1.678,1.668c-0.926,0.722-1.482,0.977-2.023,1.224c-0.531,0.241-1.032,0.469-1.9,1.147l0,0   c-0.866,0.678-1.21,1.109-1.573,1.565c-0.37,0.465-0.752,0.944-1.678,1.668c-0.925,0.723-1.484,0.979-2.024,1.226   c-0.532,0.241-1.033,0.469-1.901,1.147c-0.482,0.378-0.801,0.677-1.052,0.948c-0.111-0.182-0.222-0.367-0.331-0.552   c0.25-0.258,0.564-0.543,1.001-0.886c0.927-0.723,1.485-0.978,2.025-1.224c0.53-0.242,1.031-0.471,1.899-1.149   c0.868-0.678,1.211-1.109,1.575-1.566c0.369-0.464,0.751-0.943,1.678-1.667h-0.001c0.926-0.723,1.484-0.978,2.023-1.224   c0.531-0.242,1.032-0.471,1.899-1.148s1.21-1.108,1.573-1.564c0.371-0.464,0.751-0.944,1.676-1.668   c0.928-0.722,1.484-0.978,2.025-1.224c0.529-0.241,1.03-0.469,1.899-1.147c0.729-0.57,1.086-0.965,1.398-1.347   c0.047,0.263,0.077,0.542,0.091,0.839C37.721,17.629,37.381,17.948,36.88,18.341z" fill="url(&quot;#SvgjsLinearGradient1082&quot;)"></path></g></g><g id="SvgjsG1077" featurekey="nameFeature-0" transform="matrix(0.6991470610683207,0,0,0.6991470610683207,-0.8389763399302658,120.42124775161382)" fill="#FFFFFF"><path d="M1.2 40.2 l0 -1.04 c0.88 0 1.72 -0.32 1.72 -1.12 l0 -24.16 c0 -0.8 -0.84 -1.12 -1.72 -1.12 l0 -1.04 l10.8 0 c3.68 0 9.8 2.04 9.8 8.92 s-6.12 9 -9.36 9 l-5.12 0 l0 8.4 c0 0.8 0.84 1.12 1.72 1.12 l0 1.04 l-7.84 0 z M12.08 27.16 c6.8 -0.04 6.48 -13.44 -0.56 -13.36 l-4.16 0.04 c0 10.16 -1.24 13.4 4.72 13.32 z M53.565 11.600000000000001 l0 1.04 c-0.92 0 -1.76 0.32 -1.72 1.12 l0 16.32 c0 4.4 -2.08 10.68 -11.04 10.68 c-9.28 0 -11.64 -6.28 -11.64 -10 l0 -17 c0.04 -0.8 -0.8 -1.12 -1.72 -1.12 l0 -1.04 l8.24 0 l0 1.04 c-0.92 0 -1.76 0.32 -1.72 1.12 l0 16.64 c0 3.52 1.28 7.56 6.84 7.56 s6.4 -4.04 6.4 -7.36 l0 -16.84 c0.04 -0.8 -0.8 -1.12 -1.72 -1.12 l0 -1.04 l8.08 0 z M81.09 38.12 c0.76 0.76 1.4 1.04 2.24 1.04 l0 1.04 l-5.8 0 l-7.44 -10.8 l-4 0 l0 8.64 c0 0.8 0.84 1.12 1.72 1.12 l0 1.04 l-7.8 0 l0 -1.04 c0.88 0 1.72 -0.32 1.72 -1.12 l0 -24.44 c-0.16 -0.6 -0.92 -0.84 -1.68 -0.84 l0 -1.04 l10.56 0 c6.72 0 10.24 3.72 10.24 8.68 s-3.52 8.04 -6.44 8.04 z M70.36999999999999 26.880000000000003 c3.36 0.04 5.84 -3.08 5.84 -6.88 c0 -3.92 -3.28 -5.92 -6.08 -5.92 c-3.04 0 -3.92 -0.16 -3.92 1.44 l0 11.32 z M88.97500000000001 40.2 l0 -1.04 c0.88 0 1.72 -0.32 1.72 -1.12 l0 -24.16 c0 -0.8 -0.84 -1.12 -1.72 -1.12 l0 -1.04 l10.8 0 c3.68 0 9.8 2.04 9.8 8.92 s-6.12 9 -9.36 9 l-5.12 0 l0 8.4 c0 0.8 0.84 1.12 1.72 1.12 l0 1.04 l-7.84 0 z M99.855 27.16 c6.8 -0.04 6.48 -13.44 -0.56 -13.36 l-4.16 0.04 c0 10.16 -1.24 13.4 4.72 13.32 z M133.10000000000002 34.68 l1.36 0 l0 5.52 l-19.24 0 l0 -1.04 c0.84 0 1.68 -0.32 1.72 -1.12 l0 -24.28 c0.04 -0.8 -0.8 -1.12 -1.72 -1.12 l0 -1.04 l7.72 0 l0 1.04 c-0.88 0 -1.64 0.28 -1.72 0.96 l0.04 23.8 l8.92 0 c2.04 0 2.88 -1.92 2.92 -2.72 z M121.22000000000001 13.64 l0 0.12 l0 -0.12 z M158.665 34.8 l1.36 0 l0 5.4 l-19.92 0 l0 -1.04 c0.92 0 1.76 -0.32 1.72 -1.12 l0 -24.28 c-0.04 -0.8 -0.88 -1.12 -1.72 -1.12 l0 -1.04 l19.84 0 l0 5.48 l-1.36 0 c-0.04 -0.8 -0.88 -2.72 -2.92 -2.72 l-9.52 0 l0 10.16 l8.48 0 c1.28 -0.12 1.84 -0.52 1.88 -1.48 l0.96 0 l0 5.32 l-0.96 0 c-0.04 -0.96 -0.6 -1.36 -1.88 -1.48 l-8.52 0 l0 10.64 l9.64 0 c2.04 0 2.88 -1.92 2.92 -2.72 z M210.475 13 c-0.92 0 -1.76 0.32 -1.72 1.12 l0 23.92 c-0.04 0.8 0.8 1.12 1.72 1.12 l0 1.04 l-7.56 0 l0 -1.04 c0.92 0 1.76 -0.32 1.72 -1.12 l0 -20.8 l-8.08 14.72 l-2 0 l-8.68 -14.84 l0 20.92 c-0.04 0.8 0.8 1.12 1.72 1.12 l0 1.04 l-7.08 0 l0 -1.04 c0.92 0 1.76 -0.32 1.72 -1.12 l0 -23.92 c0.04 -0.8 -0.8 -1.12 -1.72 -1.12 l0 -1.04 l6.96 0 l8.24 14.68 l7.84 -14.68 l6.92 0 l0 1.04 z M243.04 11.600000000000001 l0 1.04 c-0.92 0 -1.76 0.32 -1.72 1.12 l0 16.32 c0 4.4 -2.08 10.68 -11.04 10.68 c-9.28 0 -11.64 -6.28 -11.64 -10 l0 -17 c0.04 -0.8 -0.8 -1.12 -1.72 -1.12 l0 -1.04 l8.24 0 l0 1.04 c-0.92 0 -1.76 0.32 -1.72 1.12 l0 16.64 c0 3.52 1.28 7.56 6.84 7.56 s6.4 -4.04 6.4 -7.36 l0 -16.84 c0.04 -0.8 -0.8 -1.12 -1.72 -1.12 l0 -1.04 l8.08 0 z M264.84499999999997 18.76 c-0.32 -3.4 -3.04 -5.28 -6.72 -5.12 c-4.8 0.24 -6.28 5.4 -2.32 7.52 c0.92 0.48 2.56 1.2 5.08 2.48 c3.4 1.72 7.32 4.16 7.4 8.04 c0.12 5.28 -2.92 8.84 -10 8.84 c-4.72 0 -6.92 -1.44 -8.4 -2.84 l0 -5 l1.4 0 c0.4 3.2 3.56 5.4 6.84 5.4 c2.96 0 5.2 -1.28 5.24 -4.76 c0.08 -4.12 -3.08 -5.24 -6.48 -6.76 c-2.24 -1 -6.4 -2.44 -7.24 -6.28 c-1.12 -5.16 3.4 -8.84 7.96 -9.16 c3.36 -0.24 6.16 0.72 8.56 2.6 c0 0 0.12 3.92 0.12 5.04 l-1.44 0 z M282.60999999999996 12.68 c-0.88 0 -1.72 0.32 -1.72 1.12 l0 24.24 c0 0.8 0.84 1.12 1.72 1.12 l0 1.04 l-7.88 0 l0 -1.04 c0.88 0 1.72 -0.32 1.72 -1.12 l0 -24.24 c0 -0.8 -0.84 -1.12 -1.72 -1.12 l0 -1.04 l7.88 0 l0 1.04 z M290.655 26.119999999999997 c0 -8.76 7.12 -15.08 14.88 -15.08 c3.68 0 7.36 1.08 9.68 3.72 l-0.04 5.16 l-1.8 0 c0.16 -3.12 -3.64 -6.52 -7.8 -6.52 c-4.8 0 -9.36 4.64 -9.36 12.72 c0 7.12 4.16 12.12 9.36 12.12 c4.12 0 8.24 -2.84 7.8 -6.4 l1.84 0.04 l0 5.56 c-2.64 2.08 -6.28 3.36 -9.68 3.36 c-8 0 -14.88 -6.24 -14.88 -14.68 z M335.705 40.2 l0 -1.04 c0.88 0 1.72 -0.32 1.72 -1.12 l0 -24.16 c0 -0.8 -0.84 -1.12 -1.72 -1.12 l0 -1.04 l10.8 0 c3.68 0 9.8 2.04 9.8 8.92 s-6.12 9 -9.36 9 l-5.12 0 l0 8.4 c0 0.8 0.84 1.12 1.72 1.12 l0 1.04 l-7.84 0 z M346.585 27.16 c6.8 -0.04 6.48 -13.44 -0.56 -13.36 l-4.16 0.04 c0 10.16 -1.24 13.4 4.72 13.32 z M379.83 34.68 l1.36 0 l0 5.52 l-19.24 0 l0 -1.04 c0.84 0 1.68 -0.32 1.72 -1.12 l0 -24.28 c0.04 -0.8 -0.8 -1.12 -1.72 -1.12 l0 -1.04 l7.72 0 l0 1.04 c-0.88 0 -1.64 0.28 -1.72 0.96 l0.04 23.8 l8.92 0 c2.04 0 2.88 -1.92 2.92 -2.72 z M367.95 13.64 l0 0.12 l0 -0.12 z M413.995 38.36 c0.28 0.56 1.04 0.8 1.8 0.8 l0 1.04 l-7.72 0 l0 -1.04 c0.8 0 1.08 -0.28 0.96 -0.92 l-2.96 -8.08 l-11.88 0 l-3.12 8.2 c-0.08 0.56 0.2 0.8 0.96 0.8 l0 1.04 l-6.4 0 l0 -1.04 c0.72 0 1.48 -0.2 1.8 -0.72 l0.12 -0.32 l0 -0.08 l0 0.04 l10 -25.28 l6 -1.96 l10.32 27.28 l0 -0.08 l0 0.08 z M394.59499999999997 28.240000000000002 l10.96 0 l-5.28 -14.36 z M446.28 11.559999999999999 l0 1.4 c-0.44 0 -1.56 -0.12 -2.36 0.68 l-8.92 13.4 l0 11 c-0.04 0.8 0.8 1.12 1.72 1.12 l0 1.04 l-8.24 0 l0 -1.04 c0.84 0 1.6 -0.28 1.72 -0.92 l0.16 -11.2 l-9.52 -13.28 c-0.04 -0.04 -0.04 -0.12 -0.08 -0.16 l-0.08 -0.12 c-0.52 -0.64 -1.28 -0.6 -1.72 -0.6 l0 -1.44 l8.32 0 l0 1.44 c-0.48 0 -1.24 0 -1 0.8 l6.64 9.6 l6.56 -9.52 c0.52 -0.84 -0.64 -0.8 -1.12 -0.8 l0 -1.44 z M430.2 38.16 l0 -0.12 l0 0.12 z M470.485 34.8 l1.36 0 l0 5.4 l-19.92 0 l0 -1.04 c0.92 0 1.76 -0.32 1.72 -1.12 l0 -24.28 c-0.04 -0.8 -0.88 -1.12 -1.72 -1.12 l0 -1.04 l19.84 0 l0 5.48 l-1.36 0 c-0.04 -0.8 -0.88 -2.72 -2.92 -2.72 l-9.52 0 l0 10.16 l8.48 0 c1.28 -0.12 1.84 -0.52 1.88 -1.48 l0.96 0 l0 5.32 l-0.96 0 c-0.04 -0.96 -0.6 -1.36 -1.88 -1.48 l-8.52 0 l0 10.64 l9.64 0 c2.04 0 2.88 -1.92 2.92 -2.72 z M499.57000000000005 38.12 c0.76 0.76 1.4 1.04 2.24 1.04 l0 1.04 l-5.8 0 l-7.44 -10.8 l-4 0 l0 8.64 c0 0.8 0.84 1.12 1.72 1.12 l0 1.04 l-7.8 0 l0 -1.04 c0.88 0 1.72 -0.32 1.72 -1.12 l0 -24.44 c-0.16 -0.6 -0.92 -0.84 -1.68 -0.84 l0 -1.04 l10.56 0 c6.72 0 10.24 3.72 10.24 8.68 s-3.52 8.04 -6.44 8.04 z M488.85 26.880000000000003 c3.36 0.04 5.84 -3.08 5.84 -6.88 c0 -3.92 -3.28 -5.92 -6.08 -5.92 c-3.04 0 -3.92 -0.16 -3.92 1.44 l0 11.32 z" fill="#FFFFFF"></path></g><g id="SvgjsG1078" featurekey="sloganFeature-0" transform="matrix(1.2053970943356402,0,0,1.2053970943356402,121.56509789243313,162.46778225736128)" fill="url(&quot;#SvgjsLinearGradient1085&quot;)"><path d="M7.46 20 l-5.44 0 l0 -14.58 l5.24 0 c2.64 -0.04 4.7 1.32 4.7 3.66 c0 0.34 -0.02 0.64 -0.2 1.2 c-0.08 0.28 -0.2 0.52 -0.36 0.76 c-0.3 0.48 -0.9 1.04 -1.66 1.38 c1.02 0.26 1.84 0.88 2.26 1.58 s0.6 1.4 0.6 2 c0 1.36 -0.58 2.42 -1.54 3.06 c-0.96 0.62 -2.2 0.94 -3.6 0.94 z M7.14 6.82 l-3.6 0 l0 5.08 l3.48 0 c1.14 0 1.98 -0.24 2.54 -0.74 s0.84 -1.12 0.84 -1.9 c0 -1.78 -1.6 -2.44 -3.26 -2.44 z M7.2 13.26 l-3.66 0 l0 5.34 l3.96 0 c1.58 0 3.54 -0.64 3.54 -2.7 c0 -1.26 -0.78 -1.96 -1.76 -2.3 c-0.68 -0.26 -1.34 -0.34 -2.08 -0.34 z M15.66 20 l0 -14.58 l9.12 0 l0 1.42 l-7.58 0 l0 5.04 l6.94 0 l0 1.42 l-6.94 0 l0 5.28 l7.66 0 l0 1.42 l-9.2 0 z M43.96 20 l-1.6 -3.72 l-7.94 0 l-1.6 3.72 l-1.56 0 l6.28 -14.58 l1.74 0 l6.3 14.58 l-1.62 0 z M41.78 14.879999999999999 l-3.4 -7.88 l-3.38 7.88 l6.78 0 z M47.660000000000004 20 l0 -14.58 l1.54 0 l0 13.14 l6.92 0 l0 1.44 l-8.46 0 z M58.52 20 l0 -14.58 l1.54 0 l0 14.58 l-1.54 0 z M75.94 5.42 l-5.86 14.58 l-1.7 0 l-5.86 -14.58 l1.68 0 l5.04 12.86 l5.06 -12.86 l1.64 0 z M78.39999999999999 20 l0 -14.58 l9.12 0 l0 1.42 l-7.58 0 l0 5.04 l6.94 0 l0 1.42 l-6.94 0 l0 5.28 l7.66 0 l0 1.42 l-9.2 0 z" fill="url(&quot;#SvgjsLinearGradient1085&quot;)"></path></g></svg>