<svg xmlns:xlink="http://www.w3.org/1999/xlink" xmlns="http://www.w3.org/2000/svg" id="byIhSiLvF" viewBox="0 0 312.5 314.5557098610986" height="314.5557098610986" width="312.5" style="width: 312.5px; height: 314.556px; position: absolute; top: 50%; left: 50%; z-index: 0; cursor: pointer; transform: translate(-50%, -50%) scale(0.534087);"><defs id="SvgjsDefs1223"></defs><g id="SvgjsG1224" featurekey="rootContainer" transform="matrix(1.6911403075034772,0,0,1.6911403075034772,0,-0.003822346396760476)" fill="#FFFFFF"><path xmlns="http://www.w3.org/2000/svg" d="M27.983 157.03c-.229-.339-.566-.793-.807-1.141.235.361.5.733.807 1.141zM4.683 107.878l.737 2.899c.321 4.445 1.616 8.985 3.339 13.311l-.321-2.065c-.455-1.248-.655-1.961-.77-2.046-.066-.066-.067.191.039.762-1.095-5-2.027-9.749-2.751-14.651-.142.348-.378.31-.273 1.79zM4.53 102.939l-.003.111.428 3.037c.017-.025.03-.076.046-.117l-.471-3.031z" fill="#FFFFFF"></path><path xmlns="http://www.w3.org/2000/svg" d="M125.305 180.632l2.14-.828c1.441-.523 2.834-1.169 4.24-1.796a89.147 89.147 0 0 0 15.754-9.223c8.046-5.915 15.007-13.019 20.571-21.02 5.631-7.96 9.858-16.8 12.735-26.093 5.643-18.619 5.519-39.248-1.271-59.004-7.467-21.375-22.25-39.15-40.75-50.155a88.724 88.724 0 0 0-14.361-6.919c-1.246-.435-2.474-.92-3.73-1.308l-3.772-1.139-3.814-.942c-1.271-.307-2.562-.513-3.84-.772A92.651 92.651 0 0 0 93.706.004C88.524-.03 83.364.436 78.26 1.256l-1.912.329c-.639.102-1.275.219-1.904.373l-3.79.855-3.749 1.04c-1.251.347-2.471.8-3.709 1.195a97.388 97.388 0 0 0-14.362 6.284c-9.278 4.997-17.84 11.635-25.396 19.672-2.922 3.069-6.091 7.155-9.102 11.873a91.038 91.038 0 0 0-7.949 15.747c-2.195 5.611-3.793 11.426-4.808 16.85C.523 80.897.165 85.935 0 90.012c.037 1.37.072 2.609.143 3.725.109 1.116.221 2.11.337 2.993.201 1.769.548 3.087.831 4.056.582 1.937 1.104 2.47 1.544 2.316.88-.321 1.444-3.343 1.493-3.832.444-3.247.812-6.255 1.18-9.364.156-1.555.428-3.127.601-4.769.222-1.637.511-3.331.778-5.127.685-3.568 1.468-7.541 2.949-12.042a77.254 77.254 0 0 1 6.311-14.233c-.334.587-.633 1.102-.892 1.54-.366.633-.62 1.132-.834 1.479-.415.697-.575.828-.519.499.061-.326.313-1.124.78-2.251.508-1.106 1.148-2.584 2.026-4.239 1.729-3.325 4.328-7.402 7.395-11.229.79-.938 1.536-1.919 2.376-2.808.833-.895 1.656-1.784 2.482-2.634.862-.819 1.71-1.614 2.537-2.371.82-.764 1.695-1.415 2.491-2.061 4.72-3.62 9.981-7.44 15.965-10.789 1.504-.821 3.001-1.698 4.589-2.451.789-.386 1.564-.809 2.372-1.178l2.441-1.097a36.112 36.112 0 0 1 2.491-1.047l2.532-1.009 2.597-.895 1.304-.454 1.329-.391 2.67-.785c.9-.235 1.811-.438 2.718-.662 1.808-.485 3.669-.758 5.514-1.127 3.718-.574 7.486-1.021 11.257-1.089 3.769-.163 7.528.083 11.221.454 1.835.279 3.677.456 5.466.861l2.681.545 2.623.687 1.31.342 1.304.403 2.645.806 2.66.934 1.352.472 1.343.542c3.63 1.378 7.285 3.177 11.017 5.305 19.107 11.478 33.218 29.389 39.781 50.132a90.291 90.291 0 0 1 4.012 32.602c-.686 11.153-3.564 22.415-8.801 32.918-5.51 11.128-12.028 20.167-19.705 27.471-1.4 1.334-2.956 2.539-4.491 3.756-.769.606-1.589 1.144-2.376 1.711-.793.561-1.579 1.121-2.397 1.611l-2.389 1.497c-.795.473-1.598.901-2.368 1.341-1.527.904-3.06 1.619-4.444 2.351a104.836 104.836 0 0 1-12.79 5.354 104.644 104.644 0 0 1-12.205 3.209c8.975-1.655 15.399-3.714 24.498-8.151 2.984-1.578 2.055-.842-.136.574-1.126.644-2.563 1.475-3.999 2.22-1.457.693-2.876 1.387-3.923 1.82-.892.385-2.124.643-3.346.898-1.226.25-2.471.402-3.374.753l-1.497.436-1.491.381-2.964.797c-2.005.443-4.042.994-6.286 1.318-1.914.381-1.759-.299-2.712-.15-6.085.727-10.902 1.426-14.852.924l-2.188-.26c-.712-.094-1.404-.235-2.086-.347-1.364-.237-2.683-.449-3.964-.772l-2.456-.505c-.824-.174-1.649-.397-2.511-.582-1.076-.197-2.198-.393-3.297-.68-7.955-1.794-16.87-5.311-24.414-9.955l.066.116c4.075 2.556 8.177 4.843 12.584 7.158-.295-.185-.404-.298-.333-.301.13-.015.817.249 2.06.712l1.758 1.083c-4.404-1.447-8.672-3.39-12.233-5.99l-2.673-1.309c-1.18-.885-1.006-1.029-1.163-1.352-.844-.552-1.734-1.06-2.572-1.65.378.4 1.031.916 1.77 1.51.745.584 1.569 1.258 2.377 1.835l3.055 2.098c11.553 6.4 23.744 9.945 35.831 11.02.942-.071 1.598-.125 2.845-.005.938.149 1.892.256 2.838.336.887.052 1.774.033 2.659.02l2.648-.033c.615-.025 1.234-.113 1.863-.17l.051-.007c.988-.149.684-.233.066-.291a28.331 28.331 0 0 1-1.463-.091c.427.027 1.024.047 1.463.091.837.028 1.77.03 2.858-.008a139.13 139.13 0 0 1 2.047-.284c-.519.077-1.045.158-1.574.24-.157.015-.322.032-.474.044l-2.358.243-.028.003h.007l-.596.061-.857.124c2.022-.137 4.043-.217 6.044-.493 1.001-.127 2.009-.205 3.004-.371l2.985-.5a29.793 29.793 0 0 0 2.474-.57c2.847-.687 5.596-1.626 7.434-1.8l2.061-.679-.415.076.792-.201c.718-.252 1.454-.461 2.165-.742zm20.262-11.197l4.091-2.674c-1.352 1.317-2.77 2.32-4.116 3.199-.667.447-1.331.844-2 1.181a70.11 70.11 0 0 1-1.927.973c1.17-.852 2.585-1.713 3.952-2.679z" fill="#FFFFFF"></path><path xmlns="http://www.w3.org/2000/svg" d="M58.888 177.982c.224.141.553.322 1.01.535-.344-.179-.671-.357-1.01-.535zM19.272 158.767c2.418 4.979 5.726 7.287 10.916 9.1 5.014 1.751 8.945 2.042 13.705-.097 1.486 1.156 3.237 2.895 4.694 3.661 1.019.528 2.419 1.281 3.899 1.964 1.504.638 3.014 1.346 4.261 1.767 2.479.871 3.635 1.164.544-.244-4.626-2.174-8.312-4.268-11.752-6.504-.412-.277-.82-.554-1.227-.833l.087-.039c-2.444-4.893-7.029-8.306-12.16-9.717a92.218 92.218 0 0 1-1.81-1.724 20.09 20.09 0 0 0 2.248-.127c-1.047-7.914-7.416-14.342-15-16.09-.188-.355-.372-.712-.566-1.063.178.351.363.705.545 1.057a17.984 17.984 0 0 0-5.882-.384c.668 5.498 3.045 8.757 7.363 12.16 2.696 2.124 5.159 3.525 7.966 4.125.025.037.046.07.074.109-.024-.036-.045-.072-.07-.108 1.024.218 2.103.315 3.247.317.362.354.723.705 1.097 1.074.212.196.304.361.371.528a19.967 19.967 0 0 0-3.759-.569l-.078-.099.064.099c-.124-.007-.249-.002-.374-.006a23.76 23.76 0 0 1-1.307-1.368c.227.263.439.541.665.773l.642.595c-2.858-.104-5.74.403-8.403 1.643zM13.963 132.726c2.976 4.624 5.992 7.302 11.397 8.494 1.985-9.798-4.661-20.13-14.4-22.388-1.16 5.414.031 9.27 3.003 13.894zM23.249 124.886c5.065-8.615 2.145-20.551-6.329-25.854-2.858 4.743-2.993 8.772-1.685 14.114 1.309 5.34 3.288 8.855 8.014 11.74z" fill="#FFFFFF"></path></g><g id="SvgjsG1225" featurekey="nameFeature-0" transform="matrix(0.6463155889118848,0,0,0.6463155889118848,54.966111158667836,100.65785759735415)" fill="#FFFFFF"><path d="M24.76 20.48 c0 7.24 -6.68 10.08 -15.48 8.68 l0 6 c0 2.8 1.84 3.28 4.52 3.6 c0.28 0.04 0.08 1.24 -0.24 1.24 l-11.56 0 c-0.32 0 -0.56 -1.2 -0.24 -1.24 c1.96 -0.28 3.36 -1 3.36 -3.6 l0 -18.08 c0 -2.64 -1.4 -3.4 -3.36 -3.92 c-0.32 -0.08 -0.12 -1.28 0.24 -1.24 c1.6 0.2 3.36 0.24 4.56 0.24 c2.68 0 5.08 -0.24 7.16 -0.24 c5.96 0 11.04 2.24 11.04 8.56 z M12.88 13.84 c-2.8 0 -3.6 0.92 -3.6 3.24 l0 10.32 c7.08 0.96 11 -0.48 11 -6.04 c0 -5.2 -3.4 -7.52 -7.4 -7.52 z M43.36 40.64 c-5.52 0 -11.76 -2.96 -11.76 -11.08 l0 -12.72 c0 -2.6 -1.4 -3.36 -3.28 -3.6 c-0.32 -0.04 -0.08 -1.24 0.24 -1.24 l10.32 0 c0.32 0 0.56 1.2 0.24 1.24 c-1.6 0.2 -3.2 0.8 -3.2 3.6 l0 12.92 c0 5.68 3.32 8.44 7.8 8.44 c4.6 0 8.16 -2.76 8.16 -8.44 l0 -12.92 c0 -2.64 -1.48 -3.32 -3.44 -3.6 c-0.28 -0.04 -0.08 -1.24 0.24 -1.24 l8.72 0 c0.32 0 0.56 1.2 0.24 1.24 c-1.68 0.2 -3.28 0.8 -3.28 3.6 l0 12.72 c0 7.32 -4.72 11.08 -11 11.08 z M89.28 39.08 c0.32 0 0.28 1 0 1.12 c-2.24 0.84 -5.56 0.56 -7.76 -2.28 l-6.24 -8 c-1.68 -2.16 -3.88 -2.56 -6.8 -2.6 l0 7.84 c0 2.8 1.84 3.28 4.52 3.6 c0.28 0.04 0.08 1.24 -0.24 1.24 l-11.56 0 c-0.32 0 -0.56 -1.2 -0.24 -1.24 c1.96 -0.28 3.36 -1 3.36 -3.6 l0 -18.08 c0 -2.64 -1.4 -3.4 -3.36 -3.92 c-0.32 -0.08 -0.12 -1.28 0.24 -1.24 c1.6 0.2 3.36 0.24 4.56 0.24 c2.68 0 5.24 -0.24 7.08 -0.24 c5.72 0 9.92 2.4 9.92 7.4 c0 4.76 -3.96 7.04 -7 7.24 l0 0.2 c1.48 0 2.48 0.64 4.16 2.76 l6.16 7.68 c1.12 1.44 2.2 1.88 3.2 1.88 z M69.72 25.6 c6 0 8.64 -1.04 8.64 -5.24 c0 -4.36 -2.88 -6.52 -6.56 -6.52 c-2.44 0 -3.32 0.96 -3.32 3.24 l0 8.52 l1.24 0 z M114.88000000000001 20.48 c0 7.24 -6.68 10.08 -15.48 8.68 l0 6 c0 2.8 1.84 3.28 4.52 3.6 c0.28 0.04 0.08 1.24 -0.24 1.24 l-11.56 0 c-0.32 0 -0.56 -1.2 -0.24 -1.24 c1.96 -0.28 3.36 -1 3.36 -3.6 l0 -18.08 c0 -2.64 -1.4 -3.4 -3.36 -3.92 c-0.32 -0.08 -0.12 -1.28 0.24 -1.24 c1.6 0.2 3.36 0.24 4.56 0.24 c2.68 0 5.08 -0.24 7.16 -0.24 c5.96 0 11.04 2.24 11.04 8.56 z M103 13.84 c-2.8 0 -3.6 0.92 -3.6 3.24 l0 10.32 c7.08 0.96 11 -0.48 11 -6.04 c0 -5.2 -3.4 -7.52 -7.4 -7.52 z M118.28000000000002 40.08 c-0.4 0.04 -0.56 -1.2 -0.24 -1.28 c2.36 -0.6 4.16 -0.96 4.16 -3.92 l0 -18.04 c0 -2.8 -1.64 -3.36 -3.4 -3.6 c-0.32 -0.04 -0.08 -1.24 0.2 -1.24 l10.44 0 c0.32 0 0.52 1.2 0.24 1.24 c-1.72 0.2 -3.32 0.8 -3.32 3.6 l0 18.04 c0 2.32 1.04 3.08 4.48 3.08 c6.48 0 8.56 -2.6 9.56 -4.28 c0.32 -0.52 1.28 -0.4 1.28 0.36 c0 2.2 -1.68 6 -4.12 6.04 c-1.92 -0.12 -4.48 -0.24 -7.92 -0.24 c-3.68 0 -7.68 -0.12 -11.36 0.24 z M144.28 40.08 c-0.4 0.04 -0.56 -1.2 -0.24 -1.28 c2.36 -0.6 4.16 -0.96 4.16 -3.92 l0 -17.92 c0 -2.68 -1.64 -3.36 -3.4 -3.8 c-0.32 -0.08 -0.16 -1.28 0.24 -1.24 c2.92 0.24 7.2 0.24 10.16 0.24 c3.64 0 6.36 -0.16 9.52 -0.24 c0.92 0 0.92 0.64 0.72 1.52 l-1 3.8 c-0.12 0.52 -1.08 0.52 -1.24 0 c-0.56 -1.88 -1.84 -3.2 -6.92 -3.2 c-3 0 -3.92 0.72 -3.92 2.92 l0 6.64 c0 1.04 0.52 1.24 1.32 1.24 l0.76 0 c3.56 0 6.24 -0.24 8 -1.92 c0.36 -0.36 1.2 -0.28 0.88 0.48 l-2.36 5.04 c-0.28 0.68 -0.84 0.6 -1.28 0 c-0.96 -1.24 -3.04 -1.72 -5.56 -1.72 l-0.44 0 c-0.8 0 -1.32 0.2 -1.32 1.24 l0 6.92 c0 2.32 1.04 3.08 4.48 3.08 c6.48 0 8.56 -2.6 9.56 -4.28 c0.32 -0.52 1.28 -0.4 1.28 0.36 c0 2.2 -1.68 6 -4.12 6.04 c-1.92 -0.12 -4.48 -0.24 -7.92 -0.24 c-3.68 0 -7.68 -0.12 -11.36 0.24 z M213.88 38.76 c0.32 0.04 0.08 1.24 -0.24 1.24 l-9.68 0 c-0.28 0 -0.52 -1.2 -0.24 -1.24 c1.48 -0.24 2.8 -0.92 2.68 -3.6 l-0.72 -14.48 l-7 14.24 c-0.72 1.48 -1.44 3.28 -1.56 4 c-0.08 0.44 -0.76 0.72 -1.32 0.72 s-0.88 -0.24 -1.12 -0.72 l-9.52 -18.08 l-0.6 14.32 c-0.12 2.68 1.24 3.44 2.68 3.6 c0.32 0.04 0.08 1.24 -0.2 1.24 l-7.96 0 c-0.32 0 -0.56 -1.2 -0.24 -1.24 c1.72 -0.2 3.24 -0.8 3.36 -3.6 l1.2 -23.12 c0.04 -0.6 1.4 -0.64 1.72 0 l11.64 22 l10.88 -22 c0.32 -0.64 1.68 -0.6 1.72 0 l1.2 23.12 c0.12 2.8 1.56 3.4 3.32 3.6 z M232.24 40.64 c-5.52 0 -11.76 -2.96 -11.76 -11.08 l0 -12.72 c0 -2.6 -1.4 -3.36 -3.28 -3.6 c-0.32 -0.04 -0.08 -1.24 0.24 -1.24 l10.32 0 c0.32 0 0.56 1.2 0.24 1.24 c-1.6 0.2 -3.2 0.8 -3.2 3.6 l0 12.92 c0 5.68 3.32 8.44 7.8 8.44 c4.6 0 8.16 -2.76 8.16 -8.44 l0 -12.92 c0 -2.64 -1.48 -3.32 -3.44 -3.6 c-0.28 -0.04 -0.08 -1.24 0.24 -1.24 l8.72 0 c0.32 0 0.56 1.2 0.24 1.24 c-1.68 0.2 -3.28 0.8 -3.28 3.6 l0 12.72 c0 7.32 -4.72 11.08 -11 11.08 z M258.2 40.64 c-3.32 0 -8.12 -1.52 -7.68 -3.2 l0.36 -1.4 c1.08 -3.88 2.28 1.96 8.88 1.96 c3.48 0 5.44 -1.68 5.44 -4.2 c0 -2.08 -1.52 -3 -4.08 -4.52 l-4.48 -2.72 c-4.08 -2.48 -5.68 -4.24 -5.68 -7 c0 -4.76 4.56 -8.2 9.64 -8.2 c3.08 0 6.84 1.28 6.44 2.64 l-0.48 1.48 c-1.12 3.6 -2.16 -1.52 -7.64 -1.52 c-3.08 0 -4.64 1.6 -4.64 3.76 c0 1.76 1.08 2.8 3.76 4.44 l4.68 2.8 c4.08 2.44 5.72 4.28 5.72 7.04 c0 4.88 -4.88 8.64 -10.24 8.64 z M272.44 40 c-0.32 0 -0.56 -1.2 -0.24 -1.24 c1.96 -0.28 3.36 -1 3.36 -3.6 l0 -18.32 c0 -2.6 -1.4 -3.32 -3.36 -3.6 c-0.32 -0.04 -0.08 -1.24 0.24 -1.24 l10.36 0 c0.32 0 0.56 1.2 0.24 1.24 c-1.72 0.24 -3.32 0.8 -3.32 3.6 l0 18.32 c0 2.8 1.6 3.36 3.32 3.6 c0.32 0.04 0.08 1.24 -0.24 1.24 l-10.36 0 z M302.92 40.64 c-6.72 0 -15.92 -3.96 -15.92 -14.16 c0 -7 4.32 -15.12 15.36 -15.12 c4.56 0 8.6 1.4 8.12 2.8 l-0.48 1.48 c-1.24 3.8 -3.08 -1.36 -9.92 -1.36 c-5.84 0 -9.04 3.76 -9.04 9.84 c0 8.96 6.8 13 12.68 13 c0.68 0 3.96 -0.52 6.44 -2.08 c0.32 -0.2 1.08 0.6 0.84 0.96 c-1.72 2.48 -6.96 4.64 -8.08 4.64 z" fill="#FFFFFF"></path></g><g id="SvgjsG1226" featurekey="nameFeature-1" transform="matrix(1.1743596938880647,0,0,1.1743596938880647,54.1214171465905,123.45910442350633)" fill="#FFFFFF"><path d="M24.76 20.48 c0 7.24 -6.68 10.08 -15.48 8.68 l0 6 c0 2.8 1.84 3.28 4.52 3.6 c0.28 0.04 0.08 1.24 -0.24 1.24 l-11.56 0 c-0.32 0 -0.56 -1.2 -0.24 -1.24 c1.96 -0.28 3.36 -1 3.36 -3.6 l0 -18.08 c0 -2.64 -1.4 -3.4 -3.36 -3.92 c-0.32 -0.08 -0.12 -1.28 0.24 -1.24 c1.6 0.2 3.36 0.24 4.56 0.24 c2.68 0 5.08 -0.24 7.16 -0.24 c5.96 0 11.04 2.24 11.04 8.56 z M12.88 13.84 c-2.8 0 -3.6 0.92 -3.6 3.24 l0 10.32 c7.08 0.96 11 -0.48 11 -6.04 c0 -5.2 -3.4 -7.52 -7.4 -7.52 z M28.16 40.08 c-0.4 0.04 -0.56 -1.2 -0.24 -1.28 c2.36 -0.6 4.16 -0.96 4.16 -3.92 l0 -18.04 c0 -2.8 -1.64 -3.36 -3.4 -3.6 c-0.32 -0.04 -0.08 -1.24 0.2 -1.24 l10.44 0 c0.32 0 0.52 1.2 0.24 1.24 c-1.72 0.2 -3.32 0.8 -3.32 3.6 l0 18.04 c0 2.32 1.04 3.08 4.48 3.08 c6.48 0 8.56 -2.6 9.56 -4.28 c0.32 -0.52 1.28 -0.4 1.28 0.36 c0 2.2 -1.68 6 -4.12 6.04 c-1.92 -0.12 -4.48 -0.24 -7.92 -0.24 c-3.68 0 -7.68 -0.12 -11.36 0.24 z M83.76 38.72 c0.56 0.08 0.4 1.28 -0.08 1.28 l-9.96 0 c-0.52 0 -0.6 -1.2 -0.12 -1.28 c1.52 -0.24 3.04 -0.84 1.56 -4.32 l-0.6 -1.4 c-0.36 -0.92 -1.24 -0.96 -2.52 -0.96 l-8.32 0 c-1.2 0 -2.08 0.04 -2.44 0.96 l-0.56 1.4 c-1.48 3.56 0.04 4.04 2.04 4.32 c0.48 0.08 0.4 1.28 -0.12 1.28 l-8.44 0 c-0.52 0 -0.64 -1.2 -0.12 -1.28 c1.68 -0.24 2.64 -0.88 4.12 -4.32 l6.76 -15.4 c1.56 -3.52 2.04 -5.28 2.04 -6.8 c0 -0.24 2.84 -0.88 2.96 -0.6 l9.76 22.76 c1.48 3.48 2.44 4.12 4.04 4.36 z M72.04 30 c0.6 0 1.28 -0.08 1.04 -0.6 l-5.12 -12.16 l-5.12 12.16 c-0.24 0.52 0.4 0.6 1 0.6 l8.2 0 z M113.56 12 c0.48 0 0.6 1.16 0.12 1.24 c-1.6 0.24 -2.96 1.44 -4.8 4.36 l-6.56 10.28 l0 7.28 c0 2.8 1.64 3.28 4.12 3.6 c0.28 0.04 0.08 1.24 -0.24 1.24 l-11.92 0 c-0.32 0 -0.52 -1.2 -0.24 -1.24 c2.6 -0.32 4.16 -0.84 4.16 -3.6 l0 -7.2 l-6.84 -10.32 c-1.88 -2.84 -3 -4.12 -4.72 -4.4 c-0.52 -0.08 -0.4 -1.24 0.12 -1.24 l9.96 0 c0.52 0 0.6 1.16 0.12 1.24 c-1.8 0.28 -2.52 1.72 -0.76 4.36 l5.32 7.92 l5.12 -7.92 c1.72 -2.68 0.76 -4 -1.44 -4.36 c-0.52 -0.08 -0.4 -1.24 0.12 -1.24 l8.36 0 z M116.60000000000001 40.08 c-0.4 0.04 -0.56 -1.2 -0.24 -1.28 c2.36 -0.6 4.16 -0.96 4.16 -3.92 l0 -17.92 c0 -2.68 -1.64 -3.36 -3.4 -3.8 c-0.32 -0.08 -0.16 -1.28 0.24 -1.24 c2.92 0.24 7.2 0.24 10.16 0.24 c3.64 0 6.36 -0.16 9.52 -0.24 c0.92 0 0.92 0.64 0.72 1.52 l-1 3.8 c-0.12 0.52 -1.08 0.52 -1.24 0 c-0.56 -1.88 -1.84 -3.2 -6.92 -3.2 c-3 0 -3.92 0.72 -3.92 2.92 l0 6.64 c0 1.04 0.52 1.24 1.32 1.24 l0.76 0 c3.56 0 6.24 -0.24 8 -1.92 c0.36 -0.36 1.2 -0.28 0.88 0.48 l-2.36 5.04 c-0.28 0.68 -0.84 0.6 -1.28 0 c-0.96 -1.24 -3.04 -1.72 -5.56 -1.72 l-0.44 0 c-0.8 0 -1.32 0.2 -1.32 1.24 l0 6.92 c0 2.32 1.04 3.08 4.48 3.08 c6.48 0 8.56 -2.6 9.56 -4.28 c0.32 -0.52 1.28 -0.4 1.28 0.36 c0 2.2 -1.68 6 -4.12 6.04 c-1.92 -0.12 -4.48 -0.24 -7.92 -0.24 c-3.68 0 -7.68 -0.12 -11.36 0.24 z M171.68 39.08 c0.32 0 0.28 1 0 1.12 c-2.24 0.84 -5.56 0.56 -7.76 -2.28 l-6.24 -8 c-1.68 -2.16 -3.88 -2.56 -6.8 -2.6 l0 7.84 c0 2.8 1.84 3.28 4.52 3.6 c0.28 0.04 0.08 1.24 -0.24 1.24 l-11.56 0 c-0.32 0 -0.56 -1.2 -0.24 -1.24 c1.96 -0.28 3.36 -1 3.36 -3.6 l0 -18.08 c0 -2.64 -1.4 -3.4 -3.36 -3.92 c-0.32 -0.08 -0.12 -1.28 0.24 -1.24 c1.6 0.2 3.36 0.24 4.56 0.24 c2.68 0 5.24 -0.24 7.08 -0.24 c5.72 0 9.92 2.4 9.92 7.4 c0 4.76 -3.96 7.04 -7 7.24 l0 0.2 c1.48 0 2.48 0.64 4.16 2.76 l6.16 7.68 c1.12 1.44 2.2 1.88 3.2 1.88 z M152.12 25.6 c6 0 8.64 -1.04 8.64 -5.24 c0 -4.36 -2.88 -6.52 -6.56 -6.52 c-2.44 0 -3.32 0.96 -3.32 3.24 l0 8.52 l1.24 0 z" fill="#FFFFFF"></path></g><g id="SvgjsG1227" featurekey="sloganFeature-0" transform="matrix(1.1140642919374233,0,0,1.1140642919374233,94.7495901515355,184.96272766175463)" fill="#FFFFFF"><path d="M7.46 20 l-5.44 0 l0 -14.58 l5.24 0 c2.64 -0.04 4.7 1.32 4.7 3.66 c0 0.34 -0.02 0.64 -0.2 1.2 c-0.08 0.28 -0.2 0.52 -0.36 0.76 c-0.3 0.48 -0.9 1.04 -1.66 1.38 c1.02 0.26 1.84 0.88 2.26 1.58 s0.6 1.4 0.6 2 c0 1.36 -0.58 2.42 -1.54 3.06 c-0.96 0.62 -2.2 0.94 -3.6 0.94 z M7.14 6.82 l-3.6 0 l0 5.08 l3.48 0 c1.14 0 1.98 -0.24 2.54 -0.74 s0.84 -1.12 0.84 -1.9 c0 -1.78 -1.6 -2.44 -3.26 -2.44 z M7.2 13.26 l-3.66 0 l0 5.34 l3.96 0 c1.58 0 3.54 -0.64 3.54 -2.7 c0 -1.26 -0.78 -1.96 -1.76 -2.3 c-0.68 -0.26 -1.34 -0.34 -2.08 -0.34 z M18.552 20 l0 -14.58 l9.12 0 l0 1.42 l-7.58 0 l0 5.04 l6.94 0 l0 1.42 l-6.94 0 l0 5.28 l7.66 0 l0 1.42 l-9.2 0 z M52.635999999999996 20 l-1.6 -3.72 l-7.94 0 l-1.6 3.72 l-1.56 0 l6.28 -14.58 l1.74 0 l6.3 14.58 l-1.62 0 z M50.455999999999996 14.879999999999999 l-3.4 -7.88 l-3.38 7.88 l6.78 0 z M59.228 20 l0 -14.58 l1.54 0 l0 13.14 l6.92 0 l0 1.44 l-8.46 0 z M72.97999999999999 20 l0 -14.58 l1.54 0 l0 14.58 l-1.54 0 z M93.29199999999999 5.42 l-5.86 14.58 l-1.7 0 l-5.86 -14.58 l1.68 0 l5.04 12.86 l5.06 -12.86 l1.64 0 z M98.64399999999999 20 l0 -14.58 l9.12 0 l0 1.42 l-7.58 0 l0 5.04 l6.94 0 l0 1.42 l-6.94 0 l0 5.28 l7.66 0 l0 1.42 l-9.2 0 z" fill="#FFFFFF"></path></g></svg>