<svg xmlns:xlink="http://www.w3.org/1999/xlink" xmlns="http://www.w3.org/2000/svg" viewBox="0 0 320 360" height="360" width="320"><g><path xmlns="http://www.w3.org/2000/svg" d="M20.961 227.22l3.726 4.658-1.863-6.056c-0.466-2.795-3.726 0.466-1.863 1.398M25.153 224.425c1.397 2.329 2.795 4.658 2.795 6.987 0 3.261 2.795 4.658 5.123 5.589-3.261-3.726-5.124-13.974-7.918-12.576M204.017 26.929c7.918 0 15.371-0.932 23.756 0.931 20.495 5.124 37.729 15.371 49.374 29.811l32.606 52.169c1.397 13.042 4.192 27.482 3.726 43.319 3.261 0 2.795-4.658 6.521-5.59-3.726 9.316-5.59 20.961-6.521 34.469-2.329-7.453 0-18.632 0.466-24.687-3.261 5.124-5.124 1.397-5.124-0.932 0.466-3.726-1.397-3.261-2.795-4.658-5.124-4.658-8.384-9.782-12.11-17.7 2.329-6.055 2.795-14.905-4.658-19.563-2.329-1.397-5.124-3.726-6.521-7.453-1.863-5.124-5.124-11.179-4.193-19.097 0.466-2.329-6.987 5.124-11.179 1.863-18.166-12.576-36.332-27.016-58.224-39.127-11.645 0-20.029-4.192-24.221-9.316-3.726-4.658-0.932-10.713 4.658-11.179 3.261 0 6.987-0.932 9.782 0.932 0.466-1.863 2.329-4.192 4.657-4.192M157.904 16.215l0.932 0.466c4.658 0.932 6.987 7.453 12.11 5.124 0 3.261 0.466 6.521-0.466 8.85-1.397 3.726-5.59 3.726-8.85 3.726-31.208-1.863-49.374 11.179-68.471 22.358-5.124 3.261-10.713 5.59-14.906 9.782-20.029 18.632-41.921 35.866-47.045 70.335l-4.192 38.195c-0.466 4.192-5.124 8.384-4.192 13.508l3.26 22.824c-3.261-3.261-5.124 0.932-4.192 2.795 0.466 1.397 2.329 6.055 5.124 1.863 3.726 6.987 7.453 20.495 12.576 26.55 15.837 18.632 36.332 35.4 53.101 52.169 4.192-0.932 7.453-0.932 8.384-3.727 1.397 2.795-1.397 5.59-3.726 6.056 7.453 4.658 15.837 8.85 27.016 9.781 14.44 0.932 27.948 3.261 40.524 6.522 6.521-1.863 13.042-2.795 20.029-3.261 2.329 0 3.726-3.726 6.521-4.658l0.466-4.658c2.795 4.192 2.329-1.397 0.466-4.192 3.261 2.795 4.192 5.124 5.589 6.987 0-1.397 3.726-6.521 3.727-0.466l0.931-6.055c1.397-0.932 1.863 5.124 3.261 0.931 1.397-4.192 4.192-0.932 6.987-2.329-0.932 1.863-0.466 5.59 2.794 3.261l3.727-3.261c2.329 5.59 6.055 3.261 7.918 2.329 20.495-13.042 40.99-28.413 60.553-43.784l-0.466 6.055 2.329-7.453c2.329 2.329 4.192 0.466 5.124-0.931 2.795-4.658 6.521-9.316 12.577-13.508-7.453 20.029-16.303 35.866-27.482 48.908l-4.658 5.59c0 3.261-0.932 7.453-4.658 7.918-1.863 0.466-5.59-0.932-8.384 1.863-1.397 1.863 3.261 5.59-0.466 2.795-3.261-2.329-6.521 0-10.248 0.932-2.795 0.932 1.863 3.726 2.795 5.589 0.932 1.863 1.863 3.726 1.398 6.056l-5.124-5.59c-6.055 3.261-9.782 9.316-14.906 13.974-2.329 1.863-1.397 5.124-1.397 7.918-3.261 0-6.987-0.932-8.85 0.932-1.397 1.863-0.932 4.658-0.932 7.453-4.658-0.466-5.124-7.453-9.315-6.056-4.192 0.932-8.85 1.397-12.577 3.727 2.795 5.59-4.658 2.329-3.726 3.26-6.987-4.192-13.042-7.453-20.495-4.658-15.837-5.124-35.4-2.795-49.84-0.931 0-2.329 0.466-4.658-0.466-5.124-0.932 2.329-3.726 1.397-3.26 1.397-8.85-6.055-17.7-9.782-27.016-14.905-8.384 0.932-16.303-3.261-18.632-5.59-6.521-6.055-13.974-2.795-20.029-4.192-13.042-3.261-17.7-16.769-19.098-26.084-0.932-4.658-4.658-6.521-6.055-6.056-6.055-19.563-15.371-37.263-22.824-55.429-1.863-4.658-1.397-9.316-1.397-14.44 2.329 0.932 4.658 0.466 4.192-2.794-2.329-15.371-7.918-27.016-13.974-38.195 3.261-15.837 3.726-34.469 11.179-48.443 6.521-12.576 18.632-19.098 27.016-29.811 2.795-3.726 2.795-8.85 5.59-12.11 9.316-9.316 18.632-19.098 28.879-27.482 4.658-3.726 10.247 0 17.234-1.397 2.329-8.384 11.645-15.837 20.495-13.508 3.726 0.932 11.179-8.85 13.508-9.782 3.726-1.397 1.863 3.726 1.863 6.987 8.85-6.987 20.961-10.713 32.14-14.906" fill="#F7FFF7" fill-rule="nonzero" stroke="none" stroke-width="1" stroke-linecap="butt" stroke-linejoin="miter" stroke-miterlimit="10" stroke-dasharray="" stroke-dashoffset="0" font-family="none" font-weight="none" font-size="none" text-anchor="none" style="mix-blend-mode: normal" data-fill-palette-color="tertiary"></path></g><g transform="matrix(1,0,0,1,64,134.2694164716763)"><svg viewBox="0 0 192 91.4611670566474" height="91.4611670566474" width="192"><g><svg viewBox="0 0 192 91.4611670566474" height="91.4611670566474" width="192"><g><svg viewBox="0 0 192 91.4611670566474" height="91.4611670566474" width="192"><g transform="matrix(1,0,0,1,0,55.28082023583815)"><svg viewBox="0 0 192 36.18034682080925" height="36.18034682080925" width="192"><g><svg viewBox="0 0 192 36.18034682080925" height="36.18034682080925" width="192"><g><svg viewBox="0 0 192 36.18034682080925" height="36.18034682080925" width="192"><g transform="matrix(1,0,0,1,0,0)"><svg width="192" viewBox="3 -38.849998474121094 259.4700012207031 48.89999771118164" height="36.18034682080925" data-palette-color="#f7fff7"><path d="M20.7-10.5L20.7-10.5Q20.7-11.95 20.25-13.18 19.8-14.4 18.95-15.3 18.1-16.2 16.9-16.73 15.7-17.25 14.2-17.25L14.2-17.25Q12.7-17.25 11.43-16.73 10.15-16.2 9.25-15.3 8.35-14.4 7.83-13.18 7.3-11.95 7.3-10.5L7.3-10.5Q7.3-9.05 7.83-7.8 8.35-6.55 9.25-5.65 10.15-4.75 11.43-4.23 12.7-3.7 14.2-3.7L14.2-3.7Q15.7-3.7 16.9-4.23 18.1-4.75 18.95-5.68 19.8-6.6 20.25-7.83 20.7-9.05 20.7-10.5ZM25.35-10.4L25.35-10.4Q25.35-8.05 24.55-6.05 23.75-4.05 22.3-2.6 20.85-1.15 18.82-0.33 16.8 0.5 14.4 0.5L14.4 0.5Q13.15 0.5 12.03 0.23 10.9-0.05 9.95-0.53 9-1 8.3-1.58 7.6-2.15 7.25-2.75L7.25-2.75Q7.25-2.5 7.28-2.23 7.3-1.95 7.3-1.7L7.3-1.7 7.3 10.05 3 10.05 3-20.9 7.15-20.9Q7.15-20.3 7.23-19.43 7.3-18.55 7.3-17.85L7.3-17.85Q7.7-18.45 8.38-19.07 9.05-19.7 9.98-20.23 10.9-20.75 12.05-21.1 13.2-21.45 14.6-21.45L14.6-21.45Q17-21.45 18.98-20.68 20.95-19.9 22.38-18.48 23.8-17.05 24.58-15 25.35-12.95 25.35-10.4ZM49.45-20.9L49.45 0.45 45.85 0.45 45.35-5.35Q44.2-2.8 42.12-1.15 40.05 0.5 36.85 0.5L36.85 0.5Q33.65 0.5 31.77-1.23 29.9-2.95 29.8-5.75L29.8-5.75 29.8-20.9 34.05-20.9 34.05-7.65Q34.15-6.1 35.17-5 36.2-3.9 38.35-3.75L38.35-3.75Q39.85-3.75 41.1-4.28 42.35-4.8 43.25-5.7 44.15-6.6 44.65-7.85 45.15-9.1 45.15-10.6L45.15-10.6 45.15-20.9 49.45-20.9ZM67.9-21.45L66.95-15.95Q65.55-15.95 64.25-15.58 62.95-15.2 61.92-14.45 60.9-13.7 60.3-12.58 59.7-11.45 59.7-10L59.7-10 59.7 0 55.45 0 55.45-20.9 59.2-20.9Q59.3-19.35 59.37-18.07 59.45-16.8 59.55-15.55L59.55-15.55Q60.2-16.9 61.25-18 62.3-19.1 63.5-19.85 64.7-20.6 65.85-21.03 67-21.45 67.9-21.45L67.9-21.45ZM88.69-10.5L88.69-10.5Q88.69-11.95 88.24-13.18 87.79-14.4 86.94-15.3 86.09-16.2 84.89-16.73 83.69-17.25 82.19-17.25L82.19-17.25Q80.69-17.25 79.42-16.73 78.14-16.2 77.24-15.3 76.34-14.4 75.82-13.18 75.29-11.95 75.29-10.5L75.29-10.5Q75.29-9.05 75.82-7.8 76.34-6.55 77.24-5.65 78.14-4.75 79.42-4.23 80.69-3.7 82.19-3.7L82.19-3.7Q83.69-3.7 84.89-4.23 86.09-4.75 86.94-5.68 87.79-6.6 88.24-7.83 88.69-9.05 88.69-10.5ZM93.34-10.4L93.34-10.4Q93.34-8.05 92.54-6.05 91.74-4.05 90.29-2.6 88.84-1.15 86.82-0.33 84.79 0.5 82.39 0.5L82.39 0.5Q81.14 0.5 80.02 0.23 78.89-0.05 77.94-0.53 76.99-1 76.29-1.58 75.59-2.15 75.24-2.75L75.24-2.75Q75.24-2.5 75.27-2.23 75.29-1.95 75.29-1.7L75.29-1.7 75.29 10.05 70.99 10.05 70.99-20.9 75.14-20.9Q75.14-20.3 75.22-19.43 75.29-18.55 75.29-17.85L75.29-17.85Q75.69-18.45 76.37-19.07 77.04-19.7 77.97-20.23 78.89-20.75 80.04-21.1 81.19-21.45 82.59-21.45L82.59-21.45Q84.99-21.45 86.97-20.68 88.94-19.9 90.37-18.48 91.79-17.05 92.57-15 93.34-12.95 93.34-10.4ZM102.29-38.85L102.29 0 98.04 0 98.04-38.85 102.29-38.85ZM122.84-5.55L126.04-2.45Q124.54-1.1 122.39-0.3 120.24 0.5 117.99 0.5L117.99 0.5Q115.69 0.5 113.66-0.38 111.64-1.25 110.14-2.73 108.64-4.2 107.76-6.2 106.89-8.2 106.89-10.45L106.89-10.45Q106.89-12.7 107.76-14.7 108.64-16.7 110.14-18.2 111.64-19.7 113.61-20.58 115.59-21.45 117.84-21.45L117.84-21.45Q121.39-21.45 124.01-19.33 126.64-17.2 127.79-13.75L127.79-13.75Q126.24-13.2 124.24-12.4 122.24-11.6 120.09-10.73 117.94-9.85 115.79-9 113.64-8.15 111.79-7.45L111.79-7.45Q112.64-5.75 114.26-4.73 115.89-3.7 117.89-3.7L117.89-3.7Q119.24-3.7 120.61-4.2 121.99-4.7 122.84-5.55L122.84-5.55ZM122.44-14.75L122.44-14.75Q121.84-16 120.54-16.63 119.24-17.25 117.89-17.25L117.89-17.25Q116.44-17.25 115.21-16.7 113.99-16.15 113.09-15.23 112.19-14.3 111.66-13.1 111.14-11.9 111.14-10.65L111.14-10.65Q111.14-10.4 111.16-10.3 111.19-10.2 111.19-10.15L111.19-10.15Q112.49-10.65 114.01-11.28 115.54-11.9 117.04-12.53 118.54-13.15 119.94-13.73 121.34-14.3 122.44-14.75ZM155.68-10.5L155.68-10.5Q155.68-11.95 155.23-13.18 154.78-14.4 153.93-15.3 153.08-16.2 151.88-16.73 150.68-17.25 149.18-17.25L149.18-17.25Q147.68-17.25 146.41-16.73 145.13-16.2 144.23-15.3 143.33-14.4 142.81-13.18 142.28-11.95 142.28-10.5L142.28-10.5Q142.28-9.05 142.81-7.8 143.33-6.55 144.23-5.65 145.13-4.75 146.41-4.23 147.68-3.7 149.18-3.7L149.18-3.7Q150.68-3.7 151.88-4.23 153.08-4.75 153.93-5.68 154.78-6.6 155.23-7.83 155.68-9.05 155.68-10.5ZM160.33-10.4L160.33-10.4Q160.33-8.05 159.53-6.05 158.73-4.05 157.28-2.6 155.83-1.15 153.81-0.33 151.78 0.5 149.38 0.5L149.38 0.5Q148.13 0.5 147.01 0.23 145.88-0.05 144.93-0.53 143.98-1 143.28-1.58 142.58-2.15 142.23-2.75L142.23-2.75Q142.23-2.5 142.26-2.23 142.28-1.95 142.28-1.7L142.28-1.7 142.28 10.05 137.98 10.05 137.98-20.9 142.13-20.9Q142.13-20.3 142.21-19.43 142.28-18.55 142.28-17.85L142.28-17.85Q142.68-18.45 143.36-19.07 144.03-19.7 144.96-20.23 145.88-20.75 147.03-21.1 148.18-21.45 149.58-21.45L149.58-21.45Q151.98-21.45 153.96-20.68 155.93-19.9 157.36-18.48 158.78-17.05 159.56-15 160.33-12.95 160.33-10.4ZM169.28-38.85L169.28 0 165.03 0 165.03-38.85 169.28-38.85ZM173.88-10.25L173.88-10.25Q173.88-12.55 174.75-14.58 175.63-16.6 177.13-18.13 178.63-19.65 180.6-20.55 182.58-21.45 184.83-21.45L184.83-21.45Q186.33-21.45 187.58-21.08 188.83-20.7 189.73-20.15 190.63-19.6 191.18-19 191.73-18.4 191.93-17.95L191.93-17.95 192.13-20.9 196.23-20.9 196.23 0 191.93 0 191.93-2.65Q191.68-2.25 191.13-1.7 190.58-1.15 189.7-0.68 188.83-0.2 187.63 0.15 186.43 0.5 184.88 0.5L184.88 0.5Q182.48 0.5 180.45-0.38 178.43-1.25 176.98-2.73 175.53-4.2 174.7-6.15 173.88-8.1 173.88-10.25ZM178.18-10.5L178.18-10.5Q178.18-9.05 178.7-7.8 179.23-6.55 180.13-5.65 181.03-4.75 182.28-4.23 183.53-3.7 185.03-3.7L185.03-3.7Q186.53-3.7 187.8-4.23 189.08-4.75 190-5.68 190.93-6.6 191.43-7.83 191.93-9.05 191.93-10.5L191.93-10.5Q191.93-11.95 191.43-13.18 190.93-14.4 190-15.3 189.08-16.2 187.8-16.73 186.53-17.25 185.03-17.25L185.03-17.25Q183.53-17.25 182.28-16.73 181.03-16.2 180.13-15.3 179.23-14.4 178.7-13.18 178.18-11.95 178.18-10.5ZM202.23 0L202.23-20.9 205.98-20.9Q206.08-19.35 206.15-18.07 206.23-16.8 206.33-15.55L206.33-15.55Q207.48-18.25 209.6-19.85 211.73-21.45 214.83-21.45L214.83-21.45Q217.98-21.45 219.88-19.7 221.78-17.95 221.88-15.2L221.88-15.2 221.88 0 217.58 0 217.58-13.25Q217.48-14.85 216.48-15.98 215.48-17.1 213.33-17.2L213.33-17.2Q211.83-17.2 210.58-16.68 209.33-16.15 208.43-15.25 207.53-14.35 207-13.1 206.48-11.85 206.48-10.35L206.48-10.35 206.48 0 202.23 0ZM242.17-5.55L245.37-2.45Q243.87-1.1 241.72-0.3 239.57 0.5 237.32 0.5L237.32 0.5Q235.02 0.5 233-0.38 230.97-1.25 229.47-2.73 227.97-4.2 227.1-6.2 226.22-8.2 226.22-10.45L226.22-10.45Q226.22-12.7 227.1-14.7 227.97-16.7 229.47-18.2 230.97-19.7 232.95-20.58 234.92-21.45 237.17-21.45L237.17-21.45Q240.72-21.45 243.35-19.33 245.97-17.2 247.12-13.75L247.12-13.75Q245.57-13.2 243.57-12.4 241.57-11.6 239.42-10.73 237.27-9.85 235.12-9 232.97-8.15 231.12-7.45L231.12-7.45Q231.97-5.75 233.6-4.73 235.22-3.7 237.22-3.7L237.22-3.7Q238.57-3.7 239.95-4.2 241.32-4.7 242.17-5.55L242.17-5.55ZM241.77-14.75L241.77-14.75Q241.17-16 239.87-16.63 238.57-17.25 237.22-17.25L237.22-17.25Q235.77-17.25 234.55-16.7 233.32-16.15 232.42-15.23 231.52-14.3 231-13.1 230.47-11.9 230.47-10.65L230.47-10.65Q230.47-10.4 230.5-10.3 230.52-10.2 230.52-10.15L230.52-10.15Q231.82-10.65 233.35-11.28 234.87-11.9 236.37-12.53 237.87-13.15 239.27-13.73 240.67-14.3 241.77-14.75ZM252.62-20.85L252.62-30.1 256.87-30.1 256.87-20.85 262.47-20.85 262.47-17.05 256.87-17.05 256.87 0 252.62 0 252.62-17.05 248.87-17.05 248.87-20.85 252.62-20.85Z" opacity="1" transform="matrix(1,0,0,1,0,0)" fill="#F7FFF7" class="undefined-text-0" data-fill-palette-color="primary" id="text-0"></path></svg></g></svg></g></svg></g></svg></g><g transform="matrix(1,0,0,1,74.84464941900917,0)"><svg viewBox="0 0 42.31070116198165 50.00123930635838" height="50.00123930635838" width="42.31070116198165"><g><svg xmlns="http://www.w3.org/2000/svg" xmlns:xlink="http://www.w3.org/1999/xlink" version="1.1" x="0" y="0" viewBox="12.079092025756836 5.187002182006836 75.84090423583984 89.62600708007812" enable-background="new 0 0 100 100" xml:space="preserve" height="50.00123930635838" width="42.31070116198165" class="icon-icon-0" data-fill-palette-color="accent" id="icon-0"><g fill="#EE7DDC" data-fill-palette-color="accent"><g fill="#EE7DDC" data-fill-palette-color="accent"><path d="M55.933 21.553C52.646 9.678 40.34 2.714 28.465 6.001 16.57 9.287 9.606 21.593 12.893 33.488 16.201 45.383 28.485 52.35 40.38 49.041c4.89-1.356 8.938-4.211 11.773-7.951 0.267-0.329 0.514-0.678 0.738-1.027C56.446 34.845 57.761 28.128 55.933 21.553zM27.665 15.779l1.149 4.171-2.403 0.658-1.15-4.151L27.665 15.779zM27.5 37.495l-3.657-0.718 0.349 2.854-2.177-1.314-0.78-3.76-2.343-1.254-1.541-5.607 1.952-5.405-3.164-5.176 3.246-4.52 0.863 0.616-0.268 1.808 0.761 1.521 2.795-0.082 1.683 4.375-0.655 1.748-1.728 1.252 1.398 3.411 2.917 2.301 0.738 1.274 2.63-0.822-0.658-2.67 1.501-3.698 4.932 5.383-3.925 2.979-3.123 4.683 0.288 0.967 0.719 2.628-2.259-1.005L27.5 37.495zM34.424 46.924l-4.5-1.479 0.164-1.726 6.062-0.843 0.389 1.459 1.541 1.067L34.424 46.924zM46.523 19.005l1.356-3.042-6.368-3.431-0.329 0.802 4.416 3.246-1.005 2.938-4.171-2.855-1.459-2.712 0.554-2.219 2.219-0.616-1.212-2.732 3.615 1.541 5.281 4.561 3.246 7.026-0.207 8.157-3.431-1.131 0.576-3.082-3.103-1.458 1.027-2.546L46.523 19.005zM48.516 38.604l0.082-2.732 2.917-1.212L48.516 38.604z" fill="#EE7DDC" data-fill-palette-color="accent"></path></g><path d="M87.92 57.772c0 5.155-4.171 9.327-9.326 9.327-4.027 0-7.479-2.568-8.773-6.164l-17.996 5.137c0.145 0.615 0.204 1.273 0.204 1.952 0 1.663-0.431 3.224-1.212 4.58l11.033 7.272c1.685-2.239 4.396-3.697 7.437-3.697 5.136 0 9.308 4.171 9.308 9.327 0 5.136-4.172 9.307-9.308 9.307-5.156 0-9.327-4.171-9.327-9.307 0-1.666 0.432-3.227 1.192-4.583l-11.032-7.272c-1.686 2.241-4.376 3.678-7.396 3.678-5.158 0-9.327-4.169-9.327-9.305 0-5.158 4.169-9.327 9.327-9.327 4.026 0 7.478 2.567 8.751 6.163l17.996-5.136c-0.122-0.639-0.185-1.274-0.185-1.952 0-1.666 0.432-3.227 1.192-4.583l-18.325-12.1c0.267-0.329 0.514-0.678 0.738-1.027l18.284 12.08c1.706-2.239 4.396-3.678 7.418-3.678C83.749 48.465 87.92 52.636 87.92 57.772z" fill="#EE7DDC" data-fill-palette-color="accent"></path></g></svg></g></svg></g><g></g></svg></g></svg></g></svg></g></svg>